<svg xmlns="http://www.w3.org/2000/svg" viewBox="0 -0.5 41 63" shape-rendering="crispEdges">
<metadata>Made with Pixels to Svg https://codepen.io/shshaw/pen/XbxvNj</metadata>
<path stroke="#704838" d="M20 0h1M22 0h1M26 0h1M19 1h1M21 1h1M23 1h2M27 1h1M29 1h1M24 2h1M29 2h1M17 3h1M19 3h1M29 3h3M20 4h1M29 4h1M31 4h1M29 5h1M31 5h2M18 6h1M31 6h2M17 7h2M15 8h1M18 8h1M19 12h1M20 37h1M27 37h1M20 38h1M27 38h1M20 39h1M22 39h1M22 40h1M28 40h1M19 41h1M22 41h1M28 41h1M19 42h1M28 42h1M19 43h1M24 43h1M28 43h1M19 44h1M28 44h1M19 45h1M19 46h1M29 46h1M29 47h1M13 48h2M18 48h1M29 48h1M13 49h1M16 49h2M30 49h3M13 50h9M27 50h5M14 51h1M30 57h1M30 58h1M29 60h1" />
<path stroke="#b07050" d="M21 0h1M27 0h1M25 1h1M19 2h1M18 3h1M20 3h1M28 3h1M17 4h2M17 5h2M17 6h1M22 7h1M26 7h1M31 9h1M18 10h1M27 12h1M24 13h1M26 13h1" />
<path stroke="#483018" d="M23 0h1M28 0h1M18 1h1M30 1h1M17 2h1M16 5h1M16 6h1M31 7h1M16 8h1M31 8h1M33 8h1M33 9h2M31 10h1M31 11h1M30 12h1M18 13h1M29 13h2M19 14h1M28 14h1M20 15h2M25 15h1M27 15h1M23 16h3M22 37h2M23 44h1M25 46h1M20 48h2M26 49h1M33 49h2M26 50h1M32 50h2M19 51h1" />
<path stroke="#000018" d="M25 0h1M22 1h1M26 1h1M21 2h3M25 2h3M31 2h1M21 3h1M27 3h1M32 3h1M19 4h1M28 4h1M30 4h1M32 4h2M19 5h1M33 5h1M33 6h1M32 7h1M22 9h1M27 9h1M33 10h1M32 11h1M31 12h1M31 13h1M30 14h1M28 15h2M21 16h2M26 16h3M24 17h2M29 17h2M31 18h2M33 19h2M35 20h1M39 28h1M39 29h1M40 30h1M40 31h1M40 32h1M34 33h1M39 33h1M34 34h1M39 34h1M21 35h2M25 35h2M34 35h1M40 35h1M21 36h1M26 36h1M35 36h1M40 36h1M35 37h1M40 37h1M35 38h1M35 39h1M40 41h1M22 42h1M40 42h1M23 43h1M39 43h1M24 44h1M38 44h1M23 45h2M37 45h1M23 46h1M37 46h1M23 47h1M25 47h1M37 47h1M22 48h1M25 48h1M36 48h1M22 49h1M35 49h1M22 50h1M34 50h1M18 51h1M34 51h1M19 52h1M19 53h1M35 53h1M19 54h1M35 54h1M18 55h1M35 55h1M18 56h1M34 57h1M18 58h1M34 58h1M18 59h1M35 59h1M17 60h2M36 60h1M12 61h5M29 61h1M36 61h1M30 62h6" />
<path stroke="#c09070" d="M20 1h1M28 1h1M18 2h1M20 2h1M28 2h1M30 2h1M21 7h1M28 7h1M20 8h1M26 8h1M32 8h1M16 9h1M18 9h1M32 9h1M16 10h1M32 10h1M17 11h1M22 12h1M20 13h1M23 13h1M21 14h2M27 14h1M23 17h1M26 17h1M22 18h1M24 18h3M1 26h4M0 27h1M3 29h1M8 29h1M1 30h1M3 30h1M7 30h1M3 31h1M6 31h1M12 31h1M0 32h1M4 32h1M7 32h1M8 33h1M36 33h3M9 34h1M35 35h1M39 35h1M36 36h1M36 37h1M36 38h1M36 39h1M39 40h1M38 42h2M35 43h4M15 51h3M31 51h1M33 51h1M14 52h5M31 52h1M17 53h2M31 53h1M17 54h2M32 54h1M17 55h1M30 55h1M17 56h1M30 56h1M17 57h1M17 58h1M11 59h1M13 59h1M34 59h1M35 60h1" />
<path stroke="#d8b890" d="M22 3h2M26 3h1M20 5h1M28 5h1M30 5h1M19 6h1M22 6h1M26 6h1M29 6h2M20 7h1M27 7h1M29 7h2M17 8h1M29 8h2M17 9h1M20 9h1M26 9h1M29 9h2M17 10h1M29 10h2M19 11h1M25 11h1M28 11h2M25 12h2M28 12h2M27 13h2M23 14h4M23 18h1M23 19h3M4 27h2M3 28h2M2 30h1M8 30h1M2 31h1M5 31h1M7 31h5M1 32h3M8 32h5M9 33h4M10 34h2M36 34h3M36 35h1M38 35h1M35 41h1M38 41h2M36 42h2M30 51h1M32 51h1M30 52h1M32 52h2M15 53h2M30 53h1M33 53h2M16 54h1M30 54h1M33 54h2M33 55h2M14 56h3M31 56h1M33 56h1M15 57h2M31 57h1M33 57h1M32 59h2" />
<path stroke="#f8e0c8" d="M24 3h2M21 4h7M21 5h7M23 6h3M19 7h1M23 7h3M19 8h1M23 8h3M19 9h1M23 9h3M19 10h10M20 11h5M26 11h2M20 12h2M23 12h2M21 13h2M1 27h3M5 28h2M4 29h3M4 30h3M4 31h1M5 32h1M1 33h1M3 33h1M37 35h1M37 36h3M37 37h3M37 38h2M37 39h2M36 40h3M36 41h2M32 53h1M15 54h1M31 54h1M15 55h2M31 55h2M32 56h1M32 57h1M12 59h1M15 59h1M30 60h1M32 60h1M34 60h1" />
<path stroke="#684840" d="M20 6h2M27 6h2M18 11h1M30 11h1M18 12h1M19 13h1M25 13h1M20 14h1M29 14h1M22 15h3M26 15h1M5 26h1M6 27h1M1 28h2M7 28h1M2 29h1M7 29h1M9 30h3M1 31h1M6 32h1M13 32h1M0 33h1M2 33h1M4 33h4M13 33h1M1 34h3M8 34h1M12 34h1M35 34h1M10 35h2M24 37h2M39 38h1M39 39h1M35 40h1M34 41h1M34 42h2M34 43h1M35 44h3M29 51h1M29 52h1M34 52h1M14 53h1M29 53h1M14 54h1M14 55h1M34 56h1M12 58h1M10 59h1M14 59h1M31 60h1M33 60h1" />
<path stroke="#f8f8f8" d="M21 8h1M28 8h1M21 9h1M28 9h1M19 18h2M17 19h1M19 19h2M15 20h3M19 20h3M15 21h3M15 22h3M19 22h3M27 22h3M31 22h3M13 23h2M16 23h2M19 23h2M27 23h2M30 23h5M13 24h2M16 24h2M19 24h2M27 24h2M30 24h4M13 25h2M16 25h3M20 25h1M27 25h2M13 26h1M16 26h3M20 26h1M27 26h1M29 26h5M16 27h3M20 27h1M27 27h1M29 27h5M16 28h3M20 28h1M27 28h1M29 28h5M15 29h5M29 29h5M15 30h5M29 30h4M15 31h5M29 31h4M15 32h6M27 32h1M15 33h6M27 33h6M14 34h7M28 34h4M14 35h7M28 35h2M15 36h5M22 36h2M17 37h3M32 40h2" />
<path stroke="#283840" d="M22 8h1M27 8h1M22 17h1M27 17h1M22 19h1M26 19h2M24 20h3M26 21h1M21 28h1M25 28h2M21 29h6M21 30h6M21 31h6M21 32h6M21 33h6M21 34h6M23 35h2M23 48h2M13 57h2M13 58h1M16 58h1M35 58h1M16 59h2M30 59h2M36 59h1M10 60h1M13 60h4M11 61h1M31 61h5" />
<path stroke="#909090" d="M19 17h1M18 18h1M16 19h1M27 20h1M30 20h1M34 20h1M14 21h1M18 21h3M28 21h3M34 21h1M18 22h1M30 22h1M34 22h1M18 23h1M29 23h1M12 24h1M15 24h1M21 24h1M29 24h1M15 25h1M19 25h1M30 25h5M37 25h1M15 26h1M19 26h1M28 26h1M34 26h1M36 26h1M10 27h1M15 27h1M19 27h1M28 27h1M34 27h1M36 27h1M38 27h1M10 28h3M15 28h1M35 28h1M13 29h1M20 29h1M27 29h1M38 29h1M20 30h1M27 30h1M34 30h1M13 31h2M33 31h1M14 32h1M33 32h1M14 33h1M13 38h3M32 38h2M28 39h1M19 40h1M29 45h1M12 47h1M18 47h1" />
<path stroke="#606070" d="M20 17h1M17 18h1M27 18h1M15 19h1M31 19h1M14 20h1M22 20h2M36 20h1M22 21h4M37 21h1M13 22h1M22 22h5M37 22h1M12 23h1M22 23h5M37 23h1M22 24h5M37 24h1M12 25h1M21 25h6M11 26h1M21 26h6M38 26h1M11 27h1M21 27h6M22 28h3M34 28h1M9 29h1M14 29h1M34 29h1M14 30h1M35 30h3M39 32h1M35 33h1M13 34h1M13 35h1M27 35h1M13 36h1M20 36h1M27 36h1M34 36h1M13 37h1M34 38h1M12 39h1M12 40h1M12 41h1M12 42h1M11 43h1M11 44h1M11 45h1M11 46h1M24 46h1M24 47h1M12 48h1M15 48h1M34 48h2M14 58h2M31 58h3M11 60h2M30 61h1" />
<path stroke="#c8c8d8" d="M21 17h1M28 17h1M21 18h1M28 18h3M18 19h1M21 19h1M28 19h3M32 19h1M18 20h1M28 20h2M31 20h3M21 21h1M27 21h1M31 21h3M35 21h2M14 22h1M35 22h2M15 23h1M21 23h1M35 23h2M18 24h1M34 24h3M29 25h1M35 25h2M12 26h1M14 26h1M35 26h1M37 26h1M12 27h3M35 27h1M37 27h1M13 28h2M19 28h1M28 28h1M36 28h3M10 29h3M28 29h1M35 29h3M12 30h2M28 30h1M33 30h1M38 30h2M20 31h1M27 31h2M34 31h6M28 32h5M34 32h5M33 33h1M27 34h1M32 34h2M30 35h4M14 36h1M24 36h2M28 36h6M14 37h3M28 37h7M16 38h4M28 38h4M13 39h7M29 39h6M13 40h6M29 40h3M34 40h1M13 41h6M29 41h5M13 42h6M29 42h5M12 43h7M29 43h5M12 44h7M29 44h6M12 45h7M30 45h7M12 46h7M30 46h7M13 47h5M30 47h7M16 48h2M30 48h4" />
<path stroke="#b89858" d="M21 37h1M26 37h1M21 38h1M23 38h1M25 38h2M23 39h1M25 39h3M23 40h1M25 40h3M23 41h1M25 41h3M26 45h2M26 46h3M26 47h3M18 49h1M27 49h2" />
<path stroke="#887038" d="M22 38h1M24 38h1M21 39h1M24 39h1M20 40h2M24 40h1M20 41h2M24 41h1M20 42h2M23 42h5M20 43h3M25 43h3M20 44h3M25 44h3M20 45h3M25 45h1M28 45h1M20 46h3M19 47h4M19 48h1M26 48h3M14 49h2M19 49h3M29 49h1" />
</svg>