<svg xmlns="http://www.w3.org/2000/svg" viewBox="0 -0.5 75 75" shape-rendering="crispEdges">
<metadata>Made with Pixels to Svg https://codepen.io/shshaw/pen/XbxvNj</metadata>
<path stroke="#406898" d="M36 6h6M34 7h1M43 7h2M32 8h1M35 8h1M45 8h2M31 9h1M34 9h1M31 10h3M31 11h3M41 11h1M32 12h2M38 12h1M51 12h1M37 13h1M54 13h1M30 14h1M56 14h1M29 15h1M28 16h1M60 17h1M66 17h1M27 18h1M63 18h1M68 18h1M27 19h1M27 20h1M27 21h1M31 22h3M29 23h1M34 23h2M36 25h1M35 26h1M31 27h4M30 29h1M37 31h1M28 32h1M36 34h1M25 35h1M24 36h1M23 37h1M23 38h1M11 51h1M9 52h1M39 52h2M35 53h2M38 53h1M40 53h1M9 54h1M34 54h1M37 54h2M40 54h4M13 55h1M43 55h1M36 56h1M42 56h1M37 57h1M41 57h1M49 57h5M54 58h4M44 59h2M42 60h2M45 60h2M46 61h3M47 62h2" />
<path stroke="#6088c0" d="M35 7h3M33 8h2M32 9h2M41 9h2M49 9h3M39 10h1M52 10h2M37 11h1M40 11h1M48 11h8M36 12h1M52 12h4M35 13h1M55 13h3M31 14h1M57 14h2M58 15h2M59 16h3M28 17h1M61 17h5M64 18h4M39 22h1M37 23h1M36 26h4M35 27h4M31 28h8M31 29h7M31 30h7M29 31h1M32 31h5M34 32h3M28 33h1M36 33h1M27 34h1M26 35h1M25 36h1M35 36h1M24 37h2M34 37h1M28 38h1M30 39h1M13 51h1M12 52h2M11 53h4M11 54h5M14 55h3M38 55h1M40 55h1M15 56h2M16 57h1M38 57h3M46 57h2M16 58h1M38 58h3M46 58h4M38 59h3M58 59h3M39 60h1M60 60h3M61 61h4M63 62h3" />
<path stroke="#283858" d="M38 7h5M36 8h2M43 8h2M35 9h1M34 10h1M34 11h1M42 11h6M34 12h1M39 12h2M48 12h3M32 13h1M52 13h2M55 14h1M57 15h1M58 16h1M59 17h1M61 18h2M64 19h4M38 22h1M30 27h1M30 28h1M29 30h1M12 50h1M10 51h1M10 53h1M10 55h3M35 55h1M14 56h1M17 56h1M15 57h1M17 57h1M36 57h1M48 57h1M54 57h1M15 58h1M17 58h1M37 58h1M41 58h2M45 58h1M51 58h3M16 59h1M37 59h1M41 59h1M43 59h1M47 59h1M57 59h1M38 60h1M41 60h1M49 60h1M53 60h1M59 60h1M38 61h1M40 61h1M50 61h1M54 61h1M39 62h1M55 62h1M62 62h1M55 63h1" />
<path stroke="#70b0e8" d="M43 9h6M40 10h12M38 11h2M37 12h1M36 13h1M32 14h5M34 15h5M35 16h5M34 17h6M28 18h1M32 18h9M29 19h9M39 19h2M29 20h8M39 20h2M29 21h8M39 21h2M28 22h3M34 22h3M36 23h1M30 30h1M30 31h2M29 32h5M29 33h7M28 34h8M27 35h9M26 36h9M26 37h8M29 38h3M12 51h1M11 52h1M10 54h1M36 54h1M39 54h1M36 55h2M39 55h1M41 55h1M37 56h5M48 59h3M50 60h3M39 61h1M51 61h3M52 62h3M53 63h2" />
<path stroke="#000000" d="M33 13h2M37 14h2M39 15h1M40 16h1M40 17h1M41 18h1M38 19h1M41 19h1M38 20h1M41 20h1M28 21h1M38 21h1M41 21h1M37 22h1M41 22h1M40 25h1M40 26h1M39 27h1M39 28h1M38 29h1M38 30h1M37 32h1M37 33h1M36 35h1M36 36h1M48 56h6M55 57h3M43 58h2M50 58h1M58 58h3M42 59h1M46 59h1M51 59h2M54 59h3M61 59h2M40 60h1M44 60h1M47 60h2M58 60h1M63 60h2M42 61h2M45 61h1M49 61h1M60 61h1M65 61h1M46 62h1M49 62h3M61 62h1M66 62h1M47 63h3M52 63h1M63 63h4M53 64h2" />
<path stroke="#a8d0f8" d="M30 15h4M29 16h6M29 17h5M29 18h3M10 52h1M39 53h1M35 54h1M42 55h1" />
<path stroke="#e8f0f8" d="M28 19h1M37 20h1M27 23h2M31 23h2M39 23h1M29 24h4M37 24h2M56 29h3M50 30h3M55 30h6M48 31h14M20 32h3M41 32h2M47 32h12M61 32h1M17 33h7M39 33h5M47 33h10M62 33h1M16 34h8M38 34h7M47 34h9M62 34h1M16 35h7M38 35h7M47 35h8M16 36h7M37 36h7M45 36h1M49 36h7M18 37h3M38 37h5M44 37h1M49 37h6M14 38h1M18 38h1M34 38h4M39 38h5M45 38h1M49 38h5M12 39h5M19 39h1M24 39h4M32 39h11M44 39h1M48 39h3M11 40h10M22 40h8M31 40h12M11 41h31M10 42h32M10 43h30M42 43h1M44 43h1M10 44h29M40 44h4M10 45h25M36 45h2M39 45h4M44 45h1M10 46h24M39 46h4M11 47h23M39 47h3M12 48h21M14 49h3M21 49h12M23 50h9M33 50h1M24 51h6M32 51h1M34 51h1M31 52h1M33 52h1" />
<path stroke="#802008" d="M28 20h1M37 21h1" />
<path stroke="#a8b0c0" d="M26 22h1M26 23h1M30 23h1M33 23h1M27 24h1M42 24h1M28 25h1M30 25h1M37 25h1M41 25h1M43 25h2M45 26h1M24 27h3M45 27h1M27 28h2M29 29h1M45 30h1M41 31h4M47 31h1M39 32h1M45 32h2M38 33h1M46 33h1M37 34h1M37 35h1M63 36h1M37 37h1M64 37h1M33 38h1M64 38h1M23 39h1M28 39h1M65 39h1M21 40h1M30 40h1M65 40h1M64 43h1M63 45h1M61 46h1M58 47h1M56 48h1M55 49h1M14 51h1M55 51h1M14 52h1M54 52h1M15 53h1M51 53h1M16 54h1M19 54h1M50 54h1M17 55h3M48 55h1M24 56h2M34 56h1M46 56h1M27 57h1M32 57h1" />
<path stroke="#d8d8e8" d="M27 22h1M38 23h1M40 23h1M33 24h3M39 24h2M31 25h2M38 25h2M30 26h1M33 26h2M22 28h5M56 28h3M21 29h8M50 29h3M55 29h1M59 29h2M21 30h8M48 30h2M53 30h2M61 30h1M20 31h9M62 31h1M17 32h3M23 32h5M43 32h2M59 32h2M62 32h1M16 33h1M24 33h4M44 33h2M57 33h2M61 33h1M15 34h1M24 34h3M45 34h2M56 34h1M61 34h1M14 35h2M23 35h2M45 35h2M55 35h1M14 36h2M23 36h1M44 36h1M46 36h3M56 36h1M14 37h4M21 37h2M43 37h1M45 37h4M55 37h1M12 38h2M15 38h3M19 38h4M38 38h1M44 38h1M46 38h3M54 38h1M11 39h1M17 39h2M20 39h2M43 39h1M45 39h3M51 39h3M10 40h1M43 40h11M10 41h1M42 41h9M52 41h1M9 42h1M42 42h10M53 42h1M9 43h1M40 43h2M43 43h1M45 43h8M54 43h1M9 44h1M39 44h1M44 44h8M53 44h1M9 45h1M35 45h1M38 45h1M43 45h1M45 45h8M54 45h1M9 46h1M34 46h5M43 46h12M10 47h1M34 47h5M42 47h13M10 48h2M33 48h21M11 49h3M17 49h4M33 49h21M13 50h4M21 50h2M32 50h1M34 50h19M23 51h1M30 51h2M33 51h1M35 51h17M25 52h6M32 52h1M34 52h5M41 52h10M31 53h4M37 53h1M41 53h1M43 53h7M44 54h1M46 54h4M45 55h3M44 56h2" />
<path stroke="#808090" d="M40 22h1M41 23h1M28 24h1M36 24h1M41 24h1M29 25h1M33 25h3M31 26h2M35 37h2M24 38h4M32 38h1M22 39h1M29 39h1M31 39h1M65 41h1M65 42h1M64 44h1M62 46h1M59 47h2M57 48h1M55 50h1M52 53h2M49 55h1M20 56h1M35 56h1M47 56h1M21 57h3M26 57h1M33 57h1M42 57h4M28 58h4" />
<path stroke="#c0c0d0" d="M42 25h1M41 26h4M40 27h5M40 28h6M39 29h7M39 30h6M38 31h3M38 32h1M40 32h1M59 33h2M63 33h1M57 34h4M63 34h1M56 35h8M57 36h6M56 37h8M55 38h9M54 39h11M54 40h11M51 41h1M53 41h12M52 42h1M54 42h11M53 43h1M55 43h9M52 44h1M54 44h10M53 45h1M55 45h8M55 46h6M55 47h3M54 48h2M54 49h1M17 50h4M53 50h2M15 51h8M52 51h3M15 52h10M51 52h3M16 53h15M42 53h1M50 53h1M17 54h2M20 54h14M45 54h1M20 55h15M44 55h1M21 56h3M26 56h8M43 56h1M28 57h4" />
</svg>