<svg xmlns="http://www.w3.org/2000/svg" viewBox="0 -0.5 64 74" shape-rendering="crispEdges">
<metadata>Made with Pixels to Svg https://codepen.io/shshaw/pen/XbxvNj</metadata>
<path stroke="#505028" d="M30 11h3M34 13h1M34 14h1M34 15h1M35 16h1M35 17h1M36 18h1M37 19h1M38 20h3M41 21h3M44 22h2M36 23h7M46 23h2M14 24h1M27 24h2M34 24h2M43 24h2M48 24h3M15 25h1M29 25h1M33 25h1M45 25h1M47 25h1M52 25h1M16 26h1M21 26h5M30 26h1M32 26h1M37 26h5M46 26h1M53 26h1M11 27h2M19 27h2M26 27h2M31 27h1M35 27h2M42 27h2M50 27h2M53 27h1M10 28h1M13 28h1M18 28h1M28 28h1M34 28h1M44 28h1M49 28h1M52 28h1M54 28h1M10 29h1M13 29h1M18 29h1M28 29h1M34 29h1M44 29h1M49 29h1M52 29h1M54 29h1M10 30h1M14 30h1M17 30h1M29 30h1M33 30h1M45 30h1M48 30h1M52 30h1M54 30h1M8 31h2M14 31h1M17 31h1M29 31h1M33 31h1M45 31h1M48 31h1M53 31h2M8 32h2M14 32h1M17 32h1M29 32h1M33 32h1M45 32h1M48 32h1M51 32h1M53 32h2M9 33h4M14 33h1M17 33h1M23 33h1M29 33h1M33 33h1M40 33h4M45 33h1M48 33h1M51 33h1M53 33h1M9 34h1M14 34h4M29 34h5M45 34h4M53 34h1M9 35h1M13 35h1M17 35h1M29 35h1M33 35h1M45 35h1M49 35h1M53 35h1M8 36h1M10 36h1M13 36h1M17 36h2M28 36h2M33 36h2M44 36h2M49 36h1M52 36h1M54 36h1M8 37h1M10 37h1M13 37h1M17 37h2M28 37h2M33 37h2M44 37h2M49 37h1M52 37h1M54 37h1M9 38h1M11 38h2M14 38h1M17 38h1M19 38h1M27 38h1M29 38h1M33 38h1M35 38h2M42 38h2M45 38h1M48 38h1M50 38h2M53 38h1M10 39h1M12 39h1M14 39h1M17 39h1M21 39h5M29 39h1M33 39h1M37 39h5M45 39h1M48 39h1M50 39h1M52 39h1M11 40h3M15 40h2M30 40h1M32 40h1M46 40h2M50 40h2M14 41h1M31 41h1M49 41h2M15 42h2M45 42h4M16 43h5M41 43h4M48 43h2M15 44h1M19 44h22M42 44h1M50 44h1M22 45h2M41 45h1M51 45h1M21 46h1M34 46h5M41 46h1M51 46h1M20 47h2M39 47h2M52 47h1M19 48h1M21 48h1M40 48h1M49 48h3M13 49h1M19 49h2M35 49h3M40 49h1M48 49h1M52 49h1M13 50h2M19 50h2M33 50h2M38 50h2M41 50h1M47 50h1M52 50h1M13 51h1M18 51h1M21 51h1M33 51h1M36 51h2M39 51h1M41 51h1M46 51h1M51 51h2M12 52h1M15 52h1M18 52h1M21 52h1M32 52h1M38 52h1M40 52h3M46 52h1M52 52h1M12 53h1M15 53h4M21 53h1M32 53h1M34 53h1M38 53h1M40 53h1M42 53h3M46 53h1M49 53h1M53 53h1M13 54h2M18 54h1M21 54h1M23 54h1M32 54h1M34 54h1M38 54h1M40 54h1M43 54h3M47 54h4M53 54h1M18 55h1M20 55h1M23 55h1M29 55h1M33 55h1M35 55h3M39 55h1M43 55h2M51 55h2M19 56h2M22 56h1M30 56h1M33 56h2M38 56h2M42 56h1M44 56h1M19 57h1M22 57h1M30 57h1M35 57h3M42 57h1M44 57h1M20 58h1M23 58h1M29 58h1M41 58h1M43 58h1M20 59h2M24 59h1M28 59h1M32 59h2M39 59h2M43 59h1M21 60h2M24 60h1M28 60h1M31 60h1M34 60h5M42 60h1M21 61h2M29 61h2M41 61h2M21 62h1M23 62h2M39 62h1M42 62h1M22 63h1M25 63h4M35 63h4M41 63h1M22 64h1M25 64h2M29 64h6M37 64h2M41 64h1M23 65h2M39 65h2" />
<path stroke="#909878" d="M29 12h4M29 13h3M29 14h3M29 15h3M28 16h4M28 17h4M27 18h5M26 19h6M25 20h8M22 21h12M19 22h13M17 23h3M27 23h3M15 24h3M16 25h1M22 32h1M15 45h3M44 45h3M15 46h4M23 46h4M43 46h5M14 47h5M22 47h10M42 47h6M14 48h5M23 48h8M42 48h6M15 49h3M23 49h7M42 49h5M49 49h2M24 50h6M35 50h2M43 50h3M48 50h1M20 51h1M24 51h5M34 51h1M47 51h1M20 52h1M24 52h5M33 52h1M50 52h2M24 53h5M33 53h1M51 53h2M24 54h5M52 54h1" />
<path stroke="#686840" d="M33 12h1M28 13h1M32 13h2M28 14h1M32 14h2M28 15h1M32 15h2M27 16h1M32 16h3M27 17h1M32 17h3M26 18h1M32 18h4M25 19h1M32 19h5M22 20h3M33 20h5M19 21h3M34 21h7M17 22h2M32 22h12M15 23h2M20 23h7M30 23h6M43 23h3M12 24h2M18 24h2M29 24h5M45 24h3M10 25h1M17 25h1M30 25h3M46 25h1M9 26h1M31 26h1M9 27h1M15 27h1M47 27h1M8 28h1M8 29h1M8 30h1M8 33h1M37 33h3M54 33h1M8 35h1M54 35h1M13 38h1M28 38h1M49 38h1M13 39h1M19 39h1M27 39h2M35 39h2M42 39h3M49 39h1M14 40h1M18 40h12M34 40h12M48 40h1M15 41h16M33 41h15M17 42h28M24 43h14M45 43h3M16 44h3M43 44h7M14 45h1M18 45h2M42 45h2M47 45h4M14 46h1M19 46h2M22 46h1M27 46h7M39 46h2M42 46h1M48 46h3M13 47h1M19 47h1M41 47h1M48 47h4M13 48h1M41 48h1M48 48h1M52 48h1M14 49h1M18 49h1M41 49h1M47 49h1M51 49h1M15 50h4M37 50h1M42 50h1M46 50h1M49 50h3M14 51h4M19 51h1M35 51h1M38 51h1M42 51h4M48 51h3M13 52h2M16 52h2M34 52h1M39 52h1M43 52h3M47 52h3M13 53h2M20 53h1M39 53h1M45 53h1M47 53h2M50 53h1M20 54h1M33 54h1M39 54h1M46 54h1M51 54h1M19 55h1M24 55h5M34 55h1M38 55h1M23 56h7M35 56h3M43 56h1M23 57h7M43 57h1M24 58h5M42 58h1M25 59h3M41 59h2M25 60h3M32 60h2M39 60h3M23 61h6M31 61h10M25 62h14" />
<path stroke="#9890b8" d="M11 24h1M20 24h1M26 24h1M36 24h1M42 24h1M51 24h1M11 25h1M14 25h1M18 25h1M28 25h1M34 25h1M44 25h1M48 25h1M51 25h1M52 26h1M52 27h1M14 28h2M30 28h2M46 28h1M53 28h1M14 29h2M29 29h4M45 29h3M53 29h1M15 30h2M30 30h3M46 30h2M53 30h1M15 31h2M30 31h3M46 31h2M15 32h2M30 32h3M46 32h2M15 33h2M30 33h3M46 33h2" />
<path stroke="#f8f8f8" d="M21 24h5M37 24h5M12 25h2M19 25h8M35 25h9M49 25h2M10 26h4M17 26h3M33 26h3M47 26h4M10 27h1M16 27h3M32 27h3M48 27h2M9 28h1M16 28h2M33 28h1M48 28h1M9 29h1M9 30h1M20 48h1M33 48h7M21 49h1M32 49h3M38 49h2M21 50h1M31 50h2M22 51h1M31 51h2M22 52h1M30 52h2M22 53h1M30 53h2M30 54h2" />
<path stroke="#c0c0d0" d="M27 25h1M14 26h2M20 26h1M26 26h4M36 26h1M42 26h4M51 26h1M13 27h2M28 27h3M44 27h3M29 28h1M32 28h1M45 28h1M47 28h1M16 29h2M33 29h1M48 29h1M34 47h5M32 48h1M31 49h1M22 50h1M40 50h1M30 51h1M40 51h1M41 53h1M22 54h1M41 54h2M21 55h2M30 55h3M40 55h3M21 56h1M31 56h2M40 56h2M20 57h2M31 57h4M38 57h4M21 58h2M30 58h11M22 59h2M29 59h3M34 59h5M23 60h1M29 60h2" />
<path stroke="#f07858" d="M21 27h5M37 27h5M12 28h1M20 28h1M25 28h2M36 28h7M11 29h2M19 29h1M27 29h1M35 29h3M40 29h4M50 29h2M11 30h1M19 30h1M27 30h1M35 30h2M40 30h4M50 30h2M18 31h1M28 31h1M34 31h2M40 31h5M49 31h3M10 32h1M18 32h1M28 32h1M34 32h2M40 32h5M49 32h2M18 33h1M28 33h1M34 33h2M44 33h1M49 33h2M10 34h1M18 34h1M28 34h1M34 34h2M39 34h6M49 34h3M11 35h1M19 35h1M27 35h1M35 35h1M38 35h6M50 35h2M11 36h2M19 36h2M26 36h2M35 36h9M50 36h2M20 37h7M36 37h7" />
<path stroke="#a85800" d="M11 28h1M19 28h1M27 28h1M35 28h1M43 28h1M50 28h2M18 30h1M28 30h1M34 30h1M44 30h1M49 30h1M10 31h1M52 31h1M52 32h1M52 33h1M52 34h1M10 35h1M18 35h1M28 35h1M34 35h1M44 35h1M52 35h1M11 37h2M19 37h1M27 37h1M35 37h1M43 37h1M50 37h2M21 38h5M37 38h5" />
<path stroke="#f8c0a0" d="M21 28h4M20 29h7M38 29h2M12 30h2M20 30h7M37 30h3M11 31h3M19 31h9M36 31h4M11 32h3M19 32h3M24 32h4M36 32h4M13 33h1M19 33h3M24 33h4M36 33h1M11 34h3M19 34h9M36 34h3M12 35h1M20 35h7M36 35h2M21 36h5" />
<path stroke="#606018" d="M23 32h1M22 33h1M18 38h1M20 38h1M26 38h1M34 38h1M44 38h1M18 39h1M20 39h1M26 39h1M34 39h1M17 40h1M33 40h1M49 40h1M32 41h1M48 41h1M21 43h3M38 43h3M41 44h1M20 45h2M24 45h17M32 47h2M22 48h1M31 48h1M22 49h1M30 49h1M23 50h1M30 50h1M23 51h1M29 51h1M23 52h1M29 52h1M23 53h1M29 53h1M29 54h1M22 62h1M40 62h2M23 63h2M29 63h6M39 63h2M23 64h2M39 64h2" />
<path stroke="#f8d070" d="M14 35h3M30 35h3M46 35h3M9 36h1M14 36h3M30 36h3M46 36h3M9 37h1M19 52h1M35 52h2M19 53h1M35 53h2" />
<path stroke="#b0a078" d="M53 36h1M14 37h3M30 37h3M46 37h3M53 37h1M10 38h1M15 38h2M30 38h3M46 38h2M52 38h1M11 39h1M15 39h2M30 39h3M46 39h2M51 39h1M31 40h1M37 52h1M37 53h1M19 54h1M35 54h3" />
</svg>