<svg xmlns="http://www.w3.org/2000/svg" viewBox="0 -0.5 64 64" shape-rendering="crispEdges">
<metadata>Made with Pixels to Svg https://codepen.io/shshaw/pen/XbxvNj</metadata>
<path stroke="#c0b070" d="M35 12h1M34 13h1M34 14h1M33 15h1M37 15h1M31 16h2M40 37h1M40 38h1M39 39h2M23 40h1M39 40h3M38 41h4M38 42h4M23 43h1M28 43h1M34 43h3M38 43h4M24 44h2M28 44h1M31 44h7M39 44h2M24 45h1M28 45h1M32 45h6M39 45h2M28 46h1M33 46h4M38 46h2M29 47h1M35 47h2M38 47h1M29 48h1M34 48h2M30 49h1M33 49h2M30 50h1M32 50h1" />
<path stroke="#e8e0c0" d="M35 13h1M35 14h2M34 15h3M33 16h5M31 17h7M31 18h7M33 19h5M33 20h1M36 20h1M23 41h1M24 42h2M25 43h1M27 45h1M28 47h1M29 49h1" />
<path stroke="#807048" d="M36 13h1M37 14h1M42 38h1M43 39h1M42 40h1M27 42h1M37 42h1M26 43h1M37 43h1M42 43h1M38 44h1M41 44h1M25 45h1M38 45h1M37 46h1M40 46h1M27 47h1M29 50h1M33 50h1M35 50h1M34 51h1M34 52h1" />
<path stroke="#101010" d="M38 16h1M38 17h1M39 18h1M39 19h1M39 20h1M39 21h1M38 22h1M38 23h1M38 24h1M21 25h2M25 25h1M37 25h1M49 25h1M21 26h2M26 26h1M37 26h1M50 26h1M22 27h2M36 27h1M46 27h2M49 27h1M22 28h3M27 28h1M35 28h1M44 28h3M48 28h1M23 29h3M27 29h1M42 29h4M24 30h3M41 30h4M47 30h1M22 31h2M25 31h1M39 31h4M46 31h1M24 32h2M39 32h2M44 32h2M27 33h1M42 33h2M26 34h1M34 34h1M40 34h2M20 35h1M26 35h2M33 35h1M35 35h1M20 36h1M26 36h1M33 36h3M39 36h2M26 37h1M33 37h1M35 37h1M39 37h1M41 37h1M21 38h1M34 38h1M39 38h1M38 40h1M43 40h1M37 41h1M42 41h1M22 42h1M36 42h1M42 42h1M22 43h1M31 43h3M19 44h3M41 45h1M37 47h1M36 48h1M39 48h1M35 49h1M39 49h1M25 50h2M31 50h1M34 50h1M39 50h1M30 51h1M32 51h1M38 51h1M38 52h1M34 53h1M34 54h1M39 54h1M36 55h3" />
<path stroke="#605028" d="M29 17h1M28 18h1M27 19h1M26 20h1M26 21h1M25 22h1M18 23h1M25 23h1M18 24h1M20 24h2M24 24h2M19 25h1M45 25h4M19 26h1M23 26h1M43 26h1M19 27h1M21 27h1M24 27h1M26 27h1M29 27h2M32 27h1M41 27h1M45 27h1M20 28h1M25 28h1M29 28h1M31 28h1M33 28h1M43 28h1M20 29h1M22 29h1M28 29h1M34 29h1M41 29h1M46 29h2M21 30h1M23 30h1M27 30h1M35 30h2M40 30h1M45 30h1M24 31h1M26 31h1M37 31h1M43 31h1M22 32h1M41 32h1M21 33h1M25 33h1M21 34h1M25 34h1M38 34h2M25 35h1M39 35h1M24 36h1M27 36h1M21 37h1M24 37h1M34 37h1M23 38h2M29 38h1M20 39h1M22 39h1M38 39h1M19 40h1M22 40h1M25 40h1M30 40h3M19 41h1M26 41h1M18 42h1M28 42h1M35 42h1M18 43h1M20 43h1M29 43h2M23 44h1M23 45h1M25 46h2M39 47h2M28 48h1M38 48h1M23 49h1M25 49h1M28 49h1M24 50h1M27 50h1M39 53h1M36 54h1M38 54h1M35 55h1" />
<path stroke="#a07830" d="M30 17h1M27 20h1M27 21h1M19 22h3M26 22h3M22 23h2M26 23h4M26 24h6M35 24h3M20 25h1M26 25h11M20 26h1M27 26h10M44 26h1M20 27h1M27 27h2M31 27h1M33 27h3M42 27h1M21 28h1M28 28h1M34 28h1M40 28h1M21 29h1M29 29h1M39 29h1M22 30h1M30 30h1M38 30h1M46 30h1M44 31h2M23 32h1M26 32h1M37 32h1M42 32h2M24 33h1M39 33h3M23 34h2M21 35h4M21 36h3M22 37h2M27 37h1M22 38h1M33 38h1M21 39h1M25 39h1M28 39h1M20 40h2M29 40h1M33 40h1M20 41h2M27 41h1M19 42h3M34 42h1M24 46h1M23 47h1M26 47h1M23 48h1M27 48h1M37 48h1M27 49h1M36 49h1M35 54h1" />
<path stroke="#c09050" d="M29 18h1M28 19h2M28 20h4M28 21h5M34 21h2M38 21h1M29 22h7M30 23h8M19 24h1M22 24h1M32 24h3M23 25h1M24 26h1M49 26h1M48 27h1M47 28h1M33 29h1M35 31h2M36 32h1M38 32h1M22 33h2M36 33h3M22 34h1M35 34h3M36 35h3M36 36h3M30 37h2M36 37h3M25 38h1M30 38h3M35 38h4M26 39h1M29 39h9M26 40h3M34 40h4M28 41h9M29 42h5M19 43h1M21 43h1M24 47h2M24 49h1M26 49h1M37 49h2M36 50h3M35 51h3M35 52h3M35 53h1M38 53h1M37 54h1" />
<path stroke="#d8d0a0" d="M30 18h1M38 18h1M32 19h1M38 19h1M34 20h1M37 20h2M37 21h1M41 38h1M23 39h2M41 39h2M24 40h1M22 41h1M24 41h2M23 42h1M26 42h1M24 43h1M27 43h1M26 44h2M29 44h2M26 45h1M29 45h3M27 46h1M29 46h4M30 47h5M30 48h4M31 49h2" />
<path stroke="#e0b070" d="M30 19h2M32 20h1M35 20h1M33 21h1M36 21h1M36 22h2M19 23h3M23 24h1M24 25h1M25 26h1M45 26h4M25 27h1M43 27h2M26 28h1M30 28h1M32 28h1M41 28h2M26 29h1M30 29h3M40 29h1M28 30h2M31 30h4M39 30h1M27 31h8M38 31h1M27 32h9M26 33h1M28 33h8M28 34h6M28 35h5M25 36h1M28 36h5M25 37h1M28 37h2M32 37h1M26 38h3M27 39h1M24 48h3M36 53h2" />
<path stroke="#f8f8f8" d="M27 34h1M34 35h1" />
</svg>