<svg xmlns="http://www.w3.org/2000/svg" viewBox="0 -0.5 64 64" shape-rendering="crispEdges">
<metadata>Made with Pixels to Svg https://codepen.io/shshaw/pen/XbxvNj</metadata>
<path stroke="#e0a800" d="M24 12h3M34 12h3M23 13h1M27 13h1M33 13h1M37 13h1M22 14h1M26 14h2M33 14h1M36 14h2M22 15h1M25 15h1M27 15h1M33 15h1M35 15h1M37 15h1M22 16h1M24 16h2M33 16h1M35 16h1M22 17h1M24 17h2M33 17h1M35 17h1M22 18h1M25 18h1M27 18h1M35 18h1M37 18h1M23 19h1M25 19h3M35 19h3M23 20h1M25 20h3M35 20h2M23 21h1M25 21h3M35 21h2M9 22h1M23 22h1M25 22h4M35 22h2M11 23h4M25 23h2M32 23h1M35 23h2M11 24h1M25 24h1M32 24h1M35 24h1M16 25h1M15 26h2M15 27h2M22 27h1M24 27h1M31 27h1M33 27h1M15 28h1M22 28h1M38 28h1M22 29h1M25 29h1M33 29h1M38 29h1M8 30h1M30 30h3M38 30h1M9 31h1M15 31h1M38 31h2M11 32h3M37 32h2M37 33h4M43 33h2M15 34h1M36 34h5M43 34h1M12 35h3M20 35h1M36 35h3M45 35h1M21 36h1M35 36h2M37 38h2M50 38h1M53 38h1M22 39h2M30 39h7M24 40h1M32 40h1M45 40h2M24 41h1M32 41h1M36 41h2M45 41h1M49 41h3M24 42h5M31 42h6M50 42h3M26 43h3M30 43h4M49 43h3M49 44h3M38 46h1M36 47h4M30 48h1M36 48h5M30 49h1M37 49h3M30 50h1M25 51h1M30 51h1M30 52h1M29 53h2M26 54h4" />
<path stroke="#101010" d="M27 12h1M37 12h1M28 13h1M38 13h1M28 14h1M38 14h1M28 15h1M38 15h1M28 16h1M38 16h1M28 17h1M38 17h1M28 18h1M38 18h1M28 19h1M38 19h1M28 20h1M28 21h1M31 22h1M37 22h1M37 23h1M17 24h1M37 24h1M17 25h1M17 26h1M38 26h1M17 27h1M17 28h1M39 28h1M24 29h1M31 29h1M39 29h1M16 30h1M16 31h1M40 31h1M16 32h1M19 32h1M40 32h1M46 32h2M16 33h1M18 33h1M48 33h2M50 34h2M16 35h3M40 35h2M52 35h1M12 36h4M19 36h1M40 36h1M42 36h1M52 36h2M19 37h1M40 37h1M42 37h1M53 37h1M39 38h1M54 38h1M39 39h1M43 39h1M54 39h1M38 40h1M54 40h1M38 41h1M44 41h1M53 41h1M55 41h1M37 42h1M45 42h1M55 42h1M25 43h1M36 43h4M46 43h1M54 43h1M26 44h2M32 44h6M40 44h1M47 44h2M52 44h2M27 45h5M36 45h2M40 45h1M49 45h3M28 46h1M36 46h2M41 46h1M29 47h2M41 47h1M31 48h1M41 48h1M31 49h1M40 49h1M31 50h1M37 50h3M31 51h1M31 52h1M31 53h1M25 54h1M30 54h1M26 55h4" />
<path stroke="#f8e098" d="M24 13h3M34 13h2M23 14h2M34 14h1M23 15h1M34 15h1M23 16h1M34 16h1M23 17h1M34 17h1M23 18h1M34 18h1M24 19h1M33 19h1M24 20h1M33 20h1M15 21h1M24 21h1M33 21h1M10 22h1M24 22h1M33 22h1M24 23h1M28 23h4M33 23h1M12 24h3M24 24h1M26 24h6M33 24h1M11 25h4M23 25h2M26 25h8M11 26h3M22 26h4M28 26h6M25 27h6M26 28h4M26 29h3M25 30h5M45 36h1M50 36h2M48 37h4M47 38h3M46 39h3M25 52h3M25 53h3" />
<path stroke="#f0c048" d="M36 13h1M25 14h1M35 14h1M24 15h1M24 18h1M33 18h1M34 19h1M34 20h1M10 21h1M14 21h1M34 21h1M14 22h1M34 22h1M27 23h1M34 23h1M34 24h1M8 25h1M15 25h1M25 25h1M35 25h2M8 26h3M14 26h1M34 26h4M8 27h7M34 27h4M10 28h5M21 28h1M34 28h4M21 29h1M34 29h4M21 30h4M33 30h5M10 31h5M20 31h4M25 31h1M29 31h9M20 32h5M31 32h6M20 33h6M31 33h6M20 34h7M31 34h5M41 34h2M47 34h2M21 35h6M30 35h6M42 35h1M46 35h1M22 36h13M49 36h1M24 37h2M30 37h2M44 37h1M47 37h1M52 37h1M24 38h2M30 38h2M44 38h1M24 39h1M29 39h1M49 39h1M48 40h3M26 51h4M28 52h2M28 53h1" />
<path stroke="#b06800" d="M26 15h1M36 15h1M27 16h1M37 16h1M27 17h1M37 17h1M26 18h1M32 18h1M36 18h1M32 19h1M10 20h1M14 20h2M32 20h1M37 20h1M9 21h1M16 21h1M32 21h1M37 21h1M8 22h1M11 22h1M13 22h1M15 22h1M29 22h2M32 22h1M10 23h1M23 23h1M15 24h2M23 24h1M36 24h1M7 25h1M9 25h2M22 25h1M34 25h1M37 25h1M7 26h1M21 26h1M21 27h1M23 27h1M32 27h1M38 27h1M20 28h1M25 28h1M30 28h1M7 29h1M20 29h1M29 29h1M20 30h1M39 30h1M24 31h1M28 31h1M10 32h1M14 32h1M25 32h1M39 32h1M43 32h3M17 33h1M19 33h1M41 33h2M16 34h4M27 34h1M30 34h1M11 35h1M15 35h1M19 35h1M29 35h1M39 35h1M48 36h1M20 38h1M46 38h1M51 38h2M21 39h1M44 39h1M50 39h1M53 39h1M47 40h1M51 40h1M53 40h1M46 41h1M48 41h1M52 41h1M23 42h1M46 42h1M49 42h1M24 43h1M34 43h1M47 43h2M52 43h1M28 44h4M39 44h1M39 45h1M35 46h1M39 46h2M35 47h1M40 47h1M35 48h1M36 49h1M25 50h2M29 50h1M24 52h1M24 53h1" />
<path stroke="#686868" d="M11 19h3M17 22h1M8 23h1M17 23h1M8 24h1M8 28h2M9 29h4M10 30h1M10 33h2M45 33h2M44 34h3M43 35h2M47 35h5M43 36h2M46 36h2M21 37h1M27 37h2M32 37h1M43 37h1M45 37h2M27 38h2M45 38h1M26 39h2M45 39h1M22 40h1M22 41h1M29 43h1M27 47h1M27 48h1" />
<path stroke="#f8f8f8" d="M11 20h2M12 21h1M16 22h1M9 23h1M26 26h2M23 28h1M32 28h1M23 29h1M30 29h1M32 29h1M51 39h2M47 41h1" />
<path stroke="#c8c8c8" d="M13 20h1M11 21h1M13 21h1M12 22h1M15 23h2M9 24h2M24 28h1M31 28h1M33 28h1M52 40h1M54 41h1M47 42h2M53 42h2M53 43h1" />
<path stroke="#303040" d="M7 27h1M7 28h1M16 28h1M8 29h1M13 29h4M9 30h1M11 30h5M8 31h1M8 32h2M15 32h1M9 33h1M12 33h4M47 33h1M10 34h5M49 34h1M20 36h1M37 36h3M20 37h1M22 37h2M26 37h1M29 37h1M33 37h7M21 38h3M26 38h1M29 38h1M32 38h5M43 38h1M25 39h1M28 39h1M37 39h2M21 40h1M23 40h1M25 40h7M33 40h5M44 40h1M23 41h1M25 41h7M33 41h3M29 42h2M35 43h1M38 44h1M35 45h1M38 45h1M27 46h1M28 47h1M26 48h1M28 48h2M26 49h4M27 50h2" />
<path stroke="#701000" d="M26 31h2M30 32h1M30 33h1M27 35h2" />
<path stroke="#983000" d="M26 32h4M26 33h2" />
<path stroke="#f09010" d="M28 33h2M28 34h2" />
</svg>