<svg xmlns="http://www.w3.org/2000/svg" viewBox="0 -0.5 76 72" shape-rendering="crispEdges">
<metadata>Made with Pixels to Svg https://codepen.io/shshaw/pen/XbxvNj</metadata>
<path stroke="#305858" d="M50 3h10M45 4h4M60 4h1M66 4h1M51 5h9M47 6h4M45 7h2M56 7h1M52 8h1M69 9h1M36 14h1M42 14h1M37 15h4M29 33h1M31 34h1M31 35h1M31 36h1M31 37h1M41 37h1M31 38h1M41 38h1M40 39h1M40 40h1M39 41h1M39 42h1M37 45h1M32 47h1M32 48h1M31 50h1M31 51h1M50 55h4M48 56h2M42 58h1M39 59h3M38 60h1" />
<path stroke="#588058" d="M49 4h1M42 5h3M50 5h1M40 6h1M45 6h2M38 7h1M43 7h2M52 7h4M61 7h2M37 8h1M42 8h1M49 8h3M65 8h2M36 9h1M49 9h1M35 10h1M35 11h1M43 12h1M36 13h1M42 13h1M37 14h5M24 34h2M23 35h1M30 38h1M23 39h1M30 39h1M41 39h1M24 40h1M29 40h1M41 40h1M26 41h3M40 41h1M34 49h1M17 50h3M22 50h1M17 51h4M25 51h1M18 52h3M32 52h1M34 52h1M18 53h3M25 53h1M33 53h2M18 54h4M23 54h3M14 55h1M19 55h3M18 56h1M22 56h1M47 56h1M50 56h2M15 57h1M44 57h3M48 57h1M16 58h1M43 58h1M25 59h1M42 59h3M27 60h1M35 60h3M39 60h4M40 61h1M22 62h1M24 62h6M38 62h1M25 63h10" />
<path stroke="#68a070" d="M50 4h10M45 5h5M41 6h1M59 6h1M39 7h1M51 7h1M41 8h1M48 8h1M40 9h1M45 9h1M43 10h2M36 11h1M41 11h3M36 12h7M37 13h5M26 33h3M28 34h3M28 35h3M27 36h4M23 37h1M26 37h5M23 38h7M24 39h6M25 40h4M17 49h1M14 50h1M14 51h1M22 51h1M14 52h1M17 52h1M22 52h1M14 53h1M17 53h1M22 53h3M14 54h1M15 55h1M18 55h1M15 56h1M16 57h1M17 58h1M17 59h1M28 61h3M30 62h4" />
<path stroke="#000000" d="M61 4h5M57 7h4M53 8h3M61 8h4M50 9h2M66 9h3M6 12h1M35 12h1M6 13h1M35 13h1M7 14h1M46 14h1M8 15h1M45 15h1M45 16h1M9 17h1M10 18h1M11 19h1M45 19h1M12 20h1M13 21h1M44 21h1M14 22h1M43 22h1M16 23h5M43 23h1M22 24h3M38 24h1M43 24h1M26 25h2M38 25h1M29 26h1M42 26h1M31 27h1M37 27h1M42 27h1M69 27h1M33 28h1M42 28h1M67 28h1M34 29h1M42 29h1M65 29h1M35 30h1M42 30h1M46 30h5M64 30h1M33 31h1M42 31h1M44 31h2M51 31h2M62 31h1M32 32h1M42 32h2M54 32h2M61 32h1M30 33h1M42 33h1M56 33h1M60 33h1M39 34h2M42 34h1M45 34h1M49 34h1M58 34h2M37 35h3M45 35h1M47 35h1M38 36h1M46 36h3M50 36h1M42 37h1M45 37h1M50 37h1M42 38h1M48 38h2M42 39h2M47 39h1M42 40h1M44 40h3M41 41h1M41 42h1M40 43h1M29 44h2M39 44h1M28 45h1M31 45h1M38 45h1M31 46h2M34 46h3M23 47h1M26 47h1M29 47h2M34 47h1M22 48h1M25 48h1M27 48h2M34 48h1M22 49h1M25 49h2M13 50h1M21 50h1M25 50h1M35 50h1M64 50h1M13 51h1M21 51h1M35 51h1M13 52h1M21 52h1M26 52h1M31 52h1M35 52h1M63 52h1M13 53h1M21 53h1M26 53h1M31 53h2M35 53h1M62 53h1M13 54h1M22 54h1M26 54h1M32 54h3M53 54h1M60 54h2M22 55h4M14 56h1M52 56h3M23 57h1M49 57h3M55 57h2M15 58h1M24 58h1M47 58h2M57 58h1M16 59h1M26 59h1M45 59h2M58 59h1M64 59h2M17 60h1M28 60h2M43 60h2M59 60h4M18 61h2M31 61h4M41 61h2M20 62h2M39 62h2M22 63h3M35 63h3M26 64h8" />
<path stroke="#c83030" d="M21 6h5M17 7h3M14 8h2M11 9h2M9 10h2M33 10h1M7 11h2M45 12h1M33 13h1M44 13h1M33 14h1M44 14h1M48 14h1M10 15h1M44 15h1M47 15h2M11 16h1M47 16h1M10 17h1M12 17h1M11 18h3M55 18h4M12 19h1M14 19h1M53 19h2M13 20h1M15 20h1M51 20h1M14 21h1M49 21h1M16 22h7M32 22h1M48 22h1M22 23h4M32 23h2M47 23h1M26 24h3M33 24h2M46 24h1M29 25h3M33 25h2M31 26h4M46 26h1M33 27h3M46 27h1M65 27h3M34 28h2M45 28h2M63 28h3M35 29h1M45 29h6M62 29h2M43 30h3M51 30h4M61 30h2M43 31h1M54 31h3M60 31h2M57 32h1M59 32h2M58 33h2" />
<path stroke="#90d098" d="M42 6h3M51 6h8M40 7h3M47 7h4M38 8h3M43 8h5M37 9h3M41 9h4M36 10h7M37 11h4M26 34h2M24 35h4M23 36h4M24 37h2M15 47h1M15 48h2M15 49h2M15 50h2M15 51h2M15 52h2M15 53h2M15 54h3M16 55h2M16 56h2M17 57h1" />
<path stroke="#e07070" d="M20 7h1M16 8h1M21 8h6M35 8h2M13 9h1M17 9h4M24 9h3M34 9h1M14 10h3M25 10h3M11 11h2M26 11h3M33 11h1M45 11h2M9 12h2M27 12h2M33 12h2M44 12h1M7 13h2M27 13h3M34 13h1M8 14h2M28 14h2M34 14h1M43 14h1M45 14h1M9 15h1M28 15h3M43 15h1M10 16h1M29 16h2M43 16h2M11 17h1M29 17h3M44 17h3M30 18h2M13 19h1M30 19h3M14 20h1M31 20h2M52 20h1M55 20h6M15 21h4M31 21h2M50 21h1M53 21h3M59 21h4M33 22h1M51 22h3M62 22h3M49 23h3M64 23h2M48 24h2M66 24h1M47 25h2M67 25h2M47 26h1M68 26h1M45 27h1M44 29h1M58 32h1M57 46h1M57 47h1M57 48h2M57 49h1M56 50h1M63 50h1M53 51h1M55 51h1M62 51h1M62 52h1M54 53h1M59 53h3M55 54h4M61 55h1M56 56h1M62 56h1M63 57h1M58 58h1M64 58h1M60 59h3" />
<path stroke="#f8b0b0" d="M21 7h5M17 8h4M14 9h3M11 10h3M46 10h3M9 11h2M34 11h1M49 11h1M7 12h2M49 12h1M47 13h1M49 13h1M47 14h1M49 14h1M48 16h1M47 17h1M55 19h4M53 20h2M61 20h1M51 21h2M63 21h1M49 22h2M65 22h1M48 23h1M66 23h1M47 24h1M67 24h1M46 25h1M45 26h1M44 28h1M56 45h1M55 46h1M54 47h1M53 48h1M53 49h1M56 49h1M59 49h5M53 50h1M58 50h1M54 51h1M57 51h1M54 52h1M56 52h1M55 53h1M58 53h1M57 55h4M57 57h1M62 58h2" />
<path stroke="#983030" d="M26 7h1M27 8h1M27 9h1M46 9h3M28 10h1M45 10h1M49 10h1M29 11h1M44 11h1M50 11h1M29 12h1M46 12h1M50 12h1M30 13h1M43 13h1M45 13h2M48 13h1M50 13h1M30 14h1M35 14h1M50 14h1M31 15h1M34 15h2M46 15h1M49 15h1M9 16h1M31 16h1M46 16h1M49 16h1M32 17h1M48 17h1M32 18h1M45 18h3M33 19h1M59 19h3M33 20h1M62 20h2M33 21h1M64 21h2M15 22h1M34 22h1M66 22h1M21 23h1M34 23h1M67 23h1M25 24h1M35 24h1M68 24h1M28 25h1M35 25h1M45 25h1M69 25h1M30 26h1M35 26h1M44 26h1M69 26h1M32 27h1M36 27h1M44 27h1M68 27h1M36 28h1M43 28h1M66 28h1M43 29h1M64 29h1M63 30h1M53 31h1M56 32h1M57 33h1M55 45h1M57 45h1M54 46h1M58 46h1M53 47h1M58 47h1M52 48h1M59 48h5M52 49h1M58 49h1M64 49h1M52 50h1M57 50h1M56 51h1M63 51h1M53 52h1M55 52h1M53 53h1M54 54h1M59 54h1M54 55h3M62 55h1M55 56h1M63 56h1M64 57h1M65 58h1M59 59h1M63 59h1" />
<path stroke="#a8d870" d="M21 9h3M17 10h4M24 10h1M13 11h4M25 11h1M11 12h2M26 12h1M9 13h2M10 14h1M27 14h1M11 15h1M36 15h1M41 15h2M12 16h1M28 16h1M39 16h4M13 17h1M38 17h1M40 17h4M14 18h1M29 18h1M38 18h5M15 19h1M16 20h1M30 20h1M19 21h2M30 21h1M56 21h3M23 22h2M28 22h4M54 22h1M61 22h1M26 23h6M40 23h1M52 23h3M63 23h1M29 24h4M40 24h3M50 24h6M65 24h1M32 25h1M40 25h2M49 25h7M66 25h1M40 26h2M48 26h9M67 26h1M40 27h2M47 27h7M55 27h1M57 27h1M39 28h3M47 28h6M54 28h1M56 28h1M39 29h3M51 29h3M55 29h1M57 29h1M38 30h4M56 30h1M58 30h1M37 31h5M57 31h1M36 32h2M39 32h3M36 33h1M38 33h1M40 33h2M37 34h1M46 34h1M48 34h1M32 35h1M36 35h1M49 36h1M34 37h2M38 37h1M49 37h1M35 38h3M35 39h2M30 40h1M21 41h3M29 41h1M21 42h9M21 43h8M16 44h1M19 44h1M22 44h6M18 45h1M24 45h2M18 46h1M56 46h1M17 47h1M55 47h1M17 48h1M54 48h1M23 49h1M54 49h1M24 50h1M54 50h1M59 50h4M58 51h1M57 52h1M56 53h1M57 56h5M18 57h1M62 57h1M18 58h2M44 58h2M59 58h1M18 59h3M19 60h4M21 61h4M35 61h5M34 62h3" />
<path stroke="#f8f8f8" d="M35 9h1M34 10h1M47 11h2M47 12h2M38 34h1M40 35h1M46 35h1M48 35h1M37 36h1M48 37h1" />
<path stroke="#d0f880" d="M21 10h3M17 11h8M13 12h13M11 13h16M11 14h16M12 15h16M13 16h15M35 16h4M14 17h15M36 17h2M15 18h14M16 19h14M17 20h13M21 21h9M25 22h3M55 22h6M55 23h8M39 24h1M56 24h9M39 25h1M56 25h10M39 26h1M57 26h10M38 27h2M54 27h1M56 27h1M58 27h7M38 28h1M53 28h1M55 28h1M57 28h6M37 29h2M54 29h1M56 29h1M58 29h4M36 30h2M55 30h1M57 30h1M59 30h2M35 31h2M58 31h2M34 32h2M32 33h2M32 34h1M34 34h2M34 35h1M22 36h1M34 36h1M21 37h2M21 38h2M20 39h3M20 40h4M20 41h1M24 41h2M18 42h2M17 43h3M17 44h2M16 45h2M16 46h2M16 47h1M56 47h1M55 48h2M55 49h1M23 50h1M55 50h1M23 51h2M59 51h3M23 52h3M58 52h4M57 53h1M58 57h4M60 58h2" />
<path stroke="#486818" d="M34 16h1M36 18h1M44 18h1M38 19h4M39 20h1M44 20h1M39 21h1M42 25h1M39 37h1M38 38h1M31 39h1M34 39h1M37 39h1M31 40h1M35 40h2M30 41h1M30 42h1M38 42h1M20 43h1M29 43h1M35 43h2M31 44h4M22 45h2M27 45h1M23 46h4" />
<path stroke="#789840" d="M35 17h1M37 18h1M43 18h1M42 19h3M40 20h4M40 21h4M39 22h1M41 22h2M39 23h1M38 26h1M37 28h1M36 29h1M34 31h1M33 32h1M38 32h1M31 33h1M35 33h1M37 33h1M39 33h1M46 33h3M36 34h1M47 34h1M33 35h1M35 35h1M42 35h1M49 35h1M33 36h1M35 36h1M39 36h2M42 36h2M20 37h1M36 37h2M44 37h1M47 37h1M45 38h1M19 39h1M19 40h1M18 41h1M17 42h1M20 42h1M40 42h1M16 43h1M37 43h1M21 44h1M15 45h1M29 45h2M32 45h1M15 46h1M27 46h4M33 46h1M14 47h1M27 47h2M14 48h1M26 48h1M14 49h1M31 49h1" />
<path stroke="#98b860" d="M39 17h1M40 22h1M41 23h2M34 33h1M33 34h1M41 34h1M22 35h1M41 35h1M21 36h1M32 36h1M36 36h1M41 36h1M32 37h2M40 37h1M43 37h1M46 37h1M20 38h1M32 38h3M39 38h2M43 38h2M46 38h2M32 39h2M38 39h2M44 39h3M32 40h3M37 40h3M19 41h1M31 41h8M31 42h7M30 43h5M38 43h2M20 44h1M28 44h1M35 44h4M19 45h3M26 45h1M33 45h4M19 46h4M18 47h5M24 47h2M33 47h1M18 48h4M23 48h2M33 48h1M18 49h4M24 49h1M32 49h2M20 50h1M32 50h3M32 51h3M33 52h1M19 56h3M19 57h4M47 57h1M20 58h4M46 58h1M21 59h4M18 60h1M23 60h4M20 61h1M25 61h3M23 62h1M37 62h1" />
</svg>