<svg xmlns="http://www.w3.org/2000/svg" viewBox="0 -0.5 94 72" shape-rendering="crispEdges">
<metadata>Made with Pixels to Svg https://codepen.io/shshaw/pen/XbxvNj</metadata>
<path stroke="#804830" d="M60 11h2M58 12h2M57 13h1M56 14h1M56 15h1M54 16h1M56 16h1M53 17h1M56 17h2M57 18h1M68 18h1M52 19h1M57 19h1M66 19h1M52 20h1M57 20h1M65 20h1M52 21h2M56 21h1M64 21h1M71 21h1M53 22h1M56 22h1M28 24h5M25 25h3M33 25h1M23 26h2M33 26h1M22 27h1M33 27h1M68 27h1M22 28h1M22 29h1M23 30h1M16 31h2M34 31h1M14 32h2M34 32h1M13 33h1M24 33h1M34 33h1M59 33h1M12 34h1M19 34h1M34 34h1M11 35h1M34 35h1M34 36h1M10 37h1M21 37h1M34 37h1M10 38h1M34 38h1M40 38h1M10 39h1M22 39h1M25 39h1M34 39h1M39 39h1M23 40h1M36 40h2M43 40h1M44 43h1M17 45h1M19 46h1M20 47h1M37 48h2M26 53h1M31 53h1M63 64h2M57 65h3M64 65h1M28 68h1M27 70h1" />
<path stroke="#e8a068" d="M60 12h2M58 13h2M68 19h2M69 20h2M70 21h1M71 22h1M71 23h1M28 25h5M25 26h8M23 27h6M32 27h1M23 28h3M23 29h2M33 31h1M16 32h2M33 32h1M15 33h4M33 33h1M13 34h4M33 34h1M12 35h3M33 35h1M12 36h2M33 36h1M11 37h2M33 37h1M11 38h2M11 39h1M42 40h1M42 41h2M42 42h2M42 43h2M43 44h2M43 45h2M44 46h1" />
<path stroke="#181818" d="M62 12h1M62 13h1M62 14h1M55 15h1M63 15h1M63 16h1M37 17h3M63 17h1M40 18h2M67 18h1M69 18h1M42 19h6M70 19h1M44 20h1M48 20h2M63 20h1M71 20h1M50 21h1M63 21h1M33 22h1M46 22h1M51 22h1M72 22h1M32 23h1M72 23h1M52 24h1M71 24h1M52 25h1M70 25h1M69 26h1M34 27h1M53 27h1M36 28h2M53 28h1M68 28h1M34 29h1M38 29h3M67 29h1M41 30h2M46 30h1M50 30h1M66 30h1M23 31h1M35 31h1M41 31h1M44 31h1M47 31h1M49 31h1M60 31h1M66 31h1M18 32h1M23 32h1M35 32h1M45 32h1M49 32h1M65 32h1M19 33h1M46 33h1M48 33h1M63 33h2M24 34h1M36 34h2M57 34h6M20 35h1M24 35h1M35 35h1M57 35h1M21 36h1M24 36h2M58 36h5M23 37h3M64 37h3M22 38h2M25 38h1M35 38h1M41 38h2M68 38h2M36 39h1M38 39h1M43 39h1M70 39h1M11 40h1M12 41h1M44 41h1M71 41h1M13 42h1M44 42h1M71 42h1M14 43h1M15 44h1M45 44h1M72 44h1M16 45h1M45 45h1M60 45h2M72 45h1M18 46h1M45 46h1M60 46h1M62 46h1M72 46h1M18 47h1M42 47h3M61 47h1M63 47h2M72 47h1M19 48h1M39 48h3M62 48h1M65 48h1M72 48h1M19 49h1M38 49h1M62 49h1M66 49h2M72 49h1M20 50h1M37 50h1M63 50h1M68 50h1M21 51h1M36 51h1M45 51h1M63 51h1M69 51h3M22 52h2M34 52h2M45 52h1M64 52h1M69 52h1M24 53h2M32 53h2M64 53h1M69 53h1M27 54h4M44 54h1M65 54h1M69 54h1M28 55h1M30 55h1M44 55h1M65 55h1M68 55h1M27 56h1M29 56h1M44 56h1M65 56h1M68 56h1M29 57h1M64 57h1M19 58h1M26 58h1M28 58h1M43 58h1M63 58h1M67 58h1M20 59h2M25 59h1M28 59h1M43 59h1M61 59h2M66 59h1M22 60h3M27 60h1M59 60h2M65 60h1M22 61h1M27 61h1M42 61h1M48 61h1M57 61h2M64 61h1M23 62h1M28 62h2M42 62h1M47 62h2M54 62h3M62 62h2M65 62h1M23 63h1M30 63h2M42 63h1M47 63h1M49 63h4M59 63h3M66 63h1M24 64h1M32 64h1M40 64h2M46 64h1M53 64h6M66 64h1M25 65h1M34 65h5M45 65h1M56 65h1M65 65h1M24 66h1M26 66h2M43 66h2M59 66h5M23 67h1M28 67h2M41 67h2M22 68h1M30 68h3M38 68h3M22 69h1M33 69h5M23 70h4M32 70h1M28 71h4" />
<path stroke="#d08058" d="M60 13h2M57 14h5M57 15h6M55 16h1M57 16h6M54 17h1M58 17h5M53 18h1M58 18h5M53 19h1M58 19h5M67 19h1M58 20h5M66 20h3M58 21h5M65 21h5M57 22h14M57 23h14M57 24h14M58 25h12M58 26h10M29 27h3M59 27h9M26 28h3M32 28h1M60 28h7M25 29h1M32 29h1M61 29h4M24 30h1M32 30h1M24 31h1M32 31h1M24 32h1M32 32h1M25 33h1M32 33h1M17 34h2M25 34h1M32 34h1M15 35h1M19 35h1M25 35h1M32 35h1M14 36h1M20 36h1M26 36h1M32 36h1M13 37h1M20 37h1M26 37h1M32 37h1M21 38h1M24 38h1M26 38h1M33 38h1M12 39h1M24 39h1M33 39h1M40 39h3M12 40h1M33 40h1M38 40h4M13 41h1M37 41h2M41 41h1M51 41h4M14 42h1M49 42h7M15 43h1M48 43h8M16 44h2M42 44h1M48 44h8M18 45h1M47 45h9M43 46h1M47 46h8M19 47h1M23 47h1M25 47h1M50 47h5M20 48h1M22 48h1M24 48h1M26 48h1M52 48h2M20 49h1M23 49h1M25 49h1M37 49h1M21 50h1M24 50h1M26 50h1M36 50h1M22 51h2M34 51h2M24 52h3M32 52h2M27 53h4M65 63h1M65 64h1M62 65h2M23 69h3M28 69h3M28 70h3" />
<path stroke="#886850" d="M36 17h1M35 18h1M34 19h1M34 20h1M34 21h1M45 21h1M47 25h1M52 27h1M55 27h4M34 28h1M52 28h1M59 28h1M52 29h1M34 30h1M39 30h1M52 30h1M60 30h1M36 31h1M39 31h1M43 31h1M52 31h1M40 32h1M51 32h1M54 32h1M42 33h2M50 33h1M55 33h1M38 34h1M48 34h2M56 34h1M40 35h6M38 36h1M57 36h1M40 37h1M58 37h1M63 37h1M58 38h1M67 38h1M70 40h1M57 41h1M57 42h1M57 43h1M71 43h1M56 44h1M58 44h2M56 45h1M59 45h1M55 46h1M47 47h3M55 47h1M50 48h2M54 48h1M52 49h2M71 50h1M46 52h1M21 53h1M44 53h1M46 53h1M20 54h1M46 54h1M19 55h1M47 55h1M19 56h1M47 56h1M18 57h1M26 57h1M43 57h1M47 57h1M48 58h1M48 59h1M42 60h1M49 60h1M49 61h1M50 62h1M33 64h1M39 64h1" />
<path stroke="#a86040" d="M55 17h1M54 18h3M63 18h1M54 19h3M63 19h1M53 20h4M54 21h2M57 21h1M54 22h2M53 23h4M53 24h4M53 25h5M53 26h5M68 26h1M54 27h1M29 28h3M33 28h1M67 28h1M26 29h6M33 29h1M60 29h1M65 29h2M25 30h7M33 30h1M61 30h5M25 31h7M61 31h5M25 32h7M60 32h5M14 33h1M26 33h6M60 33h3M26 34h6M16 35h3M26 35h6M11 36h1M15 36h5M27 36h5M14 37h6M27 37h5M13 38h8M27 38h6M13 39h9M23 39h1M26 39h7M35 39h1M13 40h10M24 40h9M34 40h2M52 40h2M14 41h23M39 41h2M50 41h1M55 41h1M15 42h27M48 42h1M56 42h1M16 43h26M56 43h1M18 44h24M47 44h1M19 45h24M46 45h1M20 46h23M46 46h1M21 47h2M24 47h1M26 47h16M21 48h1M23 48h1M25 48h1M27 48h10M21 49h2M24 49h1M26 49h11M22 50h2M25 50h1M27 50h9M24 51h10M27 52h5M64 62h1M62 63h3M59 64h4M60 65h2M25 66h1M24 67h4M23 68h5M29 68h1M26 69h2M31 69h2M31 70h1" />
<path stroke="#f0e0c0" d="M36 18h4M36 19h6M39 20h5M41 21h4M43 22h2M44 23h2M45 24h1M47 35h3M35 36h3M43 36h7M35 37h3M41 37h8M43 38h5M44 39h3" />
<path stroke="#e0d0a0" d="M35 19h1M35 20h4M35 21h6M35 22h8M45 22h1M34 23h10M46 23h1M35 24h10M46 24h1M39 25h8M41 26h7M43 27h5M45 28h3M55 28h3M35 29h3M46 29h2M54 29h5M35 30h4M53 30h7M37 31h2M53 31h7M37 32h3M53 32h1M55 32h5M37 33h4M51 33h4M56 33h3M39 34h8M50 34h6M36 35h3M50 35h7M39 36h4M50 36h7M38 37h1M49 37h9M36 38h2M48 38h10M47 39h11M44 40h7M55 40h2M45 41h4M56 41h1M45 42h3M45 43h2M46 44h1" />
<path stroke="#303060" d="M45 20h2M46 21h1M49 21h1M49 22h2M33 23h1M47 23h1M50 23h2M34 24h1M47 24h1M50 24h2M35 25h3M48 25h1M50 25h2M36 26h4M48 26h1M50 26h3M35 27h7M48 27h1M50 27h2M38 28h6M48 28h4M41 29h4M48 29h3M43 30h3M48 30h2M45 31h2M48 31h1M46 32h3M47 33h1M47 34h1M61 46h1M62 47h1M63 48h2M63 49h3M64 50h4M64 51h5M67 52h2M45 53h1M68 53h1M45 54h1M29 55h1M45 55h2M28 56h1M45 56h2M27 57h2M44 57h1M67 57h1M27 58h1M47 58h1M64 58h1M26 59h2M63 59h3M25 60h2M43 60h1M48 60h1M61 60h4M23 61h4M59 61h5M24 62h4M49 62h1M57 62h5M24 63h6M53 63h6M25 64h7M26 65h8M28 66h7M42 66h1M30 67h11M33 68h5" />
<path stroke="#606090" d="M47 20h1M47 21h2M47 22h2M48 23h2M33 24h1M48 24h2M34 25h1M49 25h1M34 26h2M49 26h1M49 27h1M65 52h2M65 53h3M66 54h3M66 55h2M66 56h2M45 57h2M65 57h2M44 58h3M65 58h2M44 59h4M44 60h4M43 61h5M43 62h4M43 63h4M42 64h4M39 65h6M35 66h7" />
<path stroke="#c0a870" d="M34 22h1M38 25h1M40 26h1M42 27h1M35 28h1M44 28h1M54 28h1M58 28h1M45 29h1M53 29h1M59 29h1M47 30h1M51 30h1M50 31h2M36 32h1M50 32h1M52 32h1M35 33h2M41 33h1M44 33h2M49 33h1M35 34h1M39 35h1M46 35h1M39 37h1M38 38h2M37 39h1M51 40h1M54 40h1M57 40h1M49 41h1M47 43h1" />
<path stroke="#f8f8f8" d="M51 29h1M40 30h1M40 31h1M42 31h1M41 32h4" />
<path stroke="#f0d070" d="M59 37h4M62 38h5M66 39h4M37 51h1M36 52h2M22 53h2M34 53h1M36 53h3M21 54h3M25 54h2M31 54h4M36 54h3M40 54h1M42 54h1M20 55h3M24 55h4M31 55h3M35 55h3M39 55h1M41 55h1M43 55h1M20 56h2M23 56h4M30 56h4M35 56h3M40 56h1M42 56h1M19 57h7M30 57h4M35 57h3M39 57h1M41 57h1M20 58h6M29 58h9M39 58h1M42 58h1M22 59h3M29 59h11M28 60h12M28 61h13M30 62h11M32 63h9M34 64h5" />
<path stroke="#c89840" d="M59 38h3M58 39h1M62 39h3M58 41h3M61 42h3M64 43h2M56 46h1M45 47h2M56 47h1M49 48h1M57 48h1M40 49h2M50 49h1M54 49h1M58 49h1M40 50h1M50 50h1M55 50h1M59 50h1M40 51h1M51 51h1M55 51h1M59 51h1M39 52h1M51 52h1M56 52h1M60 52h1M35 53h1M39 53h1M52 53h1M56 53h1M60 53h1M24 54h1M35 54h1M39 54h1M52 54h1M57 54h1M23 55h1M34 55h1M38 55h1M53 55h1M57 55h1M22 56h1M34 56h1M38 56h1M53 56h1M34 57h1M38 57h1M38 58h1" />
<path stroke="#e8b850" d="M59 39h3M65 39h1M58 40h12M61 41h10M58 42h3M64 42h7M58 43h6M66 43h5M57 44h1M60 44h12M57 45h2M62 45h10M57 46h3M63 46h9M57 47h4M65 47h7M42 48h7M55 48h2M58 48h4M66 48h6M39 49h1M42 49h8M51 49h1M55 49h3M59 49h3M68 49h4M38 50h2M41 50h9M51 50h4M56 50h3M60 50h3M69 50h2M38 51h2M41 51h4M46 51h5M52 51h3M56 51h3M60 51h3M38 52h1M40 52h5M47 52h4M52 52h4M57 52h3M61 52h3M40 53h4M47 53h5M53 53h3M57 53h3M61 53h3M41 54h1M43 54h1M47 54h5M53 54h4M58 54h7M40 55h1M42 55h1M48 55h5M54 55h3M58 55h7M39 56h1M41 56h1M43 56h1M48 56h5M54 56h11M40 57h1M42 57h1M48 57h16M40 58h2M49 58h14M40 59h3M49 59h12M40 60h2M50 60h9M41 61h1M50 61h7M41 62h1M51 62h3M41 63h1" />
</svg>