<svg xmlns="http://www.w3.org/2000/svg" viewBox="0 -0.5 64 64" shape-rendering="crispEdges">
<metadata>Made with Pixels to Svg https://codepen.io/shshaw/pen/XbxvNj</metadata>
<path stroke="#4898b8" d="M21 2h3M30 2h2M20 3h1M29 3h1M16 4h2M19 4h1M21 4h1M28 4h1M8 5h2M15 5h1M20 5h1M27 5h1M29 5h1M7 6h1M15 6h1M7 7h1M15 7h1M28 7h1M7 8h1M10 8h1M18 8h1M8 9h1M10 9h1M16 9h1M18 9h1M27 9h1M10 10h2M18 10h2M22 10h1M26 10h1M11 11h3M18 11h1M22 11h4M9 12h1M11 12h1M18 12h1M11 13h1M17 13h3M29 13h3M10 14h1M12 14h1M19 14h1M32 14h1M6 15h2M12 15h1M15 15h2M19 15h5M27 15h1M33 15h1M38 15h3M6 16h1M8 16h1M11 16h1M13 16h1M20 16h6M37 16h1M45 16h3M6 17h1M9 17h1M17 17h1M22 17h3M37 17h1M48 17h1M6 18h1M9 18h1M17 18h1M23 18h2M23 19h1M29 19h2M44 19h1M5 20h1M21 20h1M23 20h1M28 20h2M36 20h2M43 20h2M5 21h2M23 21h1M28 21h1M36 21h1M43 21h1M7 22h1M16 22h1M27 22h2M32 22h3M36 22h1M42 22h2M8 23h1M16 23h1M27 23h1M30 23h2M41 23h2M8 24h1M12 24h1M16 24h1M26 24h2M37 24h1M40 24h2M12 25h1M16 25h1M26 25h2M30 25h2M37 25h4M43 25h1M12 26h1M26 26h2M29 26h1M37 26h2M43 26h1M25 27h3M30 27h1M36 27h2M44 27h1M9 28h1M11 28h1M24 28h3M36 28h2M44 28h1M20 29h5M35 29h2M44 29h1M10 30h1M19 30h2M25 30h2M35 30h1M44 30h1M19 31h1M21 31h6M35 31h1M45 31h1M18 32h2M23 32h5M35 32h1M40 32h1M46 32h1M16 33h4M24 33h5M35 33h1M39 33h1M46 33h1M14 34h4M24 34h6M35 34h1M38 34h1M47 34h1M13 35h2M25 35h6M34 35h2M47 35h1M13 36h1M29 36h3M34 36h1M40 36h2M12 37h2M23 37h1M30 37h4M37 37h3M46 37h2M12 38h1M22 38h1M31 38h4M36 38h1M43 38h4M11 39h2M22 39h1M25 39h2M32 39h4M41 39h3M7 40h1M9 40h3M24 40h1M33 40h3M39 40h3M8 41h1M11 41h1M21 41h1M23 41h1M33 41h2M36 41h2M21 42h1M23 42h1M34 42h1M36 42h3M21 43h1M23 43h1M35 43h1M37 43h2M21 44h1M23 44h1M35 44h1M37 44h1M50 44h2M23 45h1M32 45h1M36 45h1M39 45h1M48 45h1M23 46h1M36 46h1M38 46h2M47 46h1M51 46h5M23 47h1M30 47h1M37 47h3M46 47h1M50 47h7M23 48h1M36 48h3M49 48h8M24 49h1M34 49h1M36 49h3M48 49h10M24 50h1M36 50h3M40 50h1M48 50h10M32 51h1M35 51h3M39 51h2M47 51h5M54 51h4M25 52h1M34 52h3M38 52h3M46 52h5M54 52h4M34 53h6M42 53h2M45 53h5M52 53h1M54 53h3M26 54h1M34 54h6M41 54h1M43 54h2M46 54h3M50 54h2M53 54h4M27 55h1M35 55h4M40 55h2M43 55h2M46 55h2M49 55h7M28 56h1M36 56h6M43 56h2M46 56h1M49 56h6M37 57h5M43 57h2M49 57h6M39 58h2M42 58h1M50 58h3" />
<path stroke="#98b8f0" d="M21 3h1M20 4h1M19 5h1M28 5h1M17 6h1M19 6h1M28 6h1M9 7h1M16 7h2M27 7h1M8 8h2M14 8h1M16 8h2M27 8h1M9 9h1M13 9h2M17 9h1M26 9h1M9 10h1M13 10h1M17 10h1M20 10h2M25 10h1M9 11h2M17 11h1M10 12h1M17 12h1M10 13h1M11 14h1M18 14h1M11 15h1M18 15h1M12 16h1M15 16h2M18 16h2M27 16h1M38 16h2M12 17h5M18 17h4M26 17h1M38 17h2M45 17h3M12 18h5M18 18h5M26 18h2M37 18h2M44 18h3M6 19h1M11 19h1M15 19h8M25 19h4M37 19h1M45 19h1M9 20h1M11 20h1M16 20h5M22 20h1M25 20h3M9 21h1M16 21h4M22 21h1M25 21h3M9 22h1M17 22h2M25 22h2M9 23h1M12 23h1M17 23h2M25 23h2M36 23h1M9 24h1M15 24h1M17 24h1M24 24h2M32 24h1M36 24h1M9 25h2M15 25h1M17 25h1M23 25h3M36 25h1M9 26h2M14 26h4M22 26h4M32 26h1M35 26h1M9 27h3M14 27h4M19 27h6M31 27h1M10 28h1M14 28h10M10 29h1M14 29h6M13 30h6M41 30h1M13 31h6M40 31h1M13 32h5M12 33h4M12 34h2M44 34h1M11 35h2M24 35h1M37 35h1M42 35h2M11 36h2M24 36h5M36 36h3M11 37h1M26 37h4M35 37h2M48 37h2M9 38h3M27 38h4M37 38h3M49 38h2M9 39h2M27 39h5M8 40h1M28 40h5M29 41h4M29 42h5M29 43h5M29 44h4M34 44h1M30 45h2M33 45h3M50 45h4M22 46h1M30 46h6M48 46h3M22 47h1M31 47h5M47 47h3M31 48h4M47 48h2M23 49h1M31 49h3M35 49h1M46 49h2M23 50h1M32 50h4M46 50h2M24 51h1M33 51h2M45 51h2M24 52h1M33 52h1M44 52h2M25 53h1" />
<path stroke="#b8d8f0" d="M22 3h2M30 3h2M29 4h2M16 5h2M8 6h2M16 6h1M8 7h1M30 15h1M28 16h2M31 16h1M8 17h1M27 17h4M32 17h1M8 18h1M28 18h5M8 19h2M12 19h3M7 20h2M12 20h4M7 21h2M11 21h5M8 22h1M11 22h5M24 22h1M11 23h1M13 23h3M23 23h2M11 24h1M13 24h2M22 24h2M30 24h1M13 25h2M21 25h2M29 25h1M13 26h1M20 26h2M30 26h2M13 27h1M29 27h1M12 28h2M12 29h2M12 30h1M37 30h1M11 31h2M37 31h2M11 32h2M37 32h3M11 33h1M37 33h2M40 33h2M11 34h1M37 34h1M39 34h3M43 34h1M10 35h1M38 35h4M10 36h1M39 36h1M42 36h1M10 37h1M24 37h2M40 37h3M23 38h4M40 38h1M23 39h2M22 40h2M22 41h1M22 42h1M22 43h1M22 44h1M22 45h1" />
<path stroke="#484880" d="M24 3h1M32 3h1M22 4h3M18 5h1M21 5h1M10 6h1M18 6h1M20 6h1M27 6h1M29 6h1M10 7h1M14 7h1M18 7h2M26 7h1M11 8h1M13 8h1M15 8h1M19 8h1M26 8h1M28 8h1M11 9h2M15 9h1M19 9h4M25 9h1M8 10h1M12 10h1M16 10h1M23 10h2M8 11h1M16 11h1M19 11h3M12 12h1M16 12h1M19 12h1M9 13h1M12 13h1M16 13h1M13 14h1M15 14h3M20 14h2M29 14h1M10 15h1M13 15h2M17 15h1M28 15h1M34 15h1M14 16h1M17 16h1M26 16h1M35 16h1M11 17h1M25 17h1M36 17h1M44 17h1M11 18h1M25 18h1M33 18h4M43 18h1M47 18h2M10 19h1M24 19h1M31 19h2M36 19h1M43 19h1M10 20h1M24 20h1M35 20h1M42 20h1M10 21h1M20 21h1M24 21h1M29 21h1M35 21h1M42 21h1M44 21h1M10 22h1M19 22h1M35 22h1M41 22h1M10 23h1M28 23h1M40 23h1M10 24h1M21 24h1M28 24h2M38 24h2M42 24h1M8 25h1M11 25h1M18 25h1M20 25h1M28 25h1M41 25h2M8 26h1M11 26h1M18 26h2M28 26h1M36 26h1M39 26h2M8 27h1M12 27h1M18 27h1M28 27h1M32 27h4M38 27h1M28 28h4M35 28h1M38 28h1M9 29h1M11 29h1M25 29h1M34 29h1M37 29h1M11 30h1M21 30h2M34 30h1M36 30h1M10 31h1M20 31h1M34 31h1M36 31h1M10 32h1M20 32h2M28 32h1M34 32h1M10 33h1M20 33h1M29 33h1M34 33h1M10 34h1M18 34h2M30 34h1M34 34h1M9 35h1M15 35h2M23 35h1M31 35h1M33 35h1M9 36h1M14 36h1M23 36h1M32 36h2M46 36h4M9 37h1M34 37h1M43 37h3M50 37h2M8 38h1M13 38h1M35 38h1M41 38h2M47 38h1M8 39h1M36 39h5M44 39h1M49 39h1M12 40h1M36 40h3M42 40h1M7 41h1M35 41h1M38 41h2M8 42h1M35 42h1M34 43h1M36 43h1M33 44h1M36 44h1M38 44h1M52 44h2M21 45h1M37 45h2M40 45h1M49 45h1M54 45h2M21 46h1M37 46h1M21 47h1M36 47h1M22 48h1M35 48h1M39 48h1M46 48h1M22 49h1M39 49h3M45 49h1M22 50h1M39 50h1M45 50h1M23 51h1M38 51h1M44 51h1M23 52h1M37 52h1M42 52h2M52 52h1M24 53h1M40 53h2M44 53h1M51 53h1M53 53h1M57 53h1M40 54h1M42 54h1M45 54h1M52 54h1M57 54h1M39 55h1M42 55h1M56 55h1M42 56h1M48 56h1M55 56h1M42 57h1M38 58h1M41 58h1M53 58h1" />
<path stroke="#101010" d="M31 4h2M30 5h1M29 7h1M28 9h1M14 10h1M27 10h1M14 11h1M26 11h1M13 12h1M22 12h4M20 13h1M22 14h2M24 15h2M40 16h1M40 17h1M39 18h1M38 19h1M46 19h1M30 20h1M38 20h1M45 20h1M37 21h1M23 22h1M29 22h1M37 22h1M44 22h1M19 23h1M22 23h1M37 23h1M43 23h1M18 24h1M27 28h1M26 29h2M23 30h2M27 30h1M27 31h1M22 32h1M36 32h1M23 33h1M36 33h1M23 34h1M36 34h1M17 35h1M36 35h1M35 36h1M14 37h1M48 38h1M51 38h1M13 39h1M45 39h2M50 39h2M43 40h1M9 41h2M12 41h1M40 41h2M9 42h3M39 42h1M39 43h1M39 44h1M40 46h1M56 46h1M40 47h1M57 47h1M40 48h1M57 48h1M58 49h1M41 50h1M58 50h1M41 51h1M52 51h2M58 51h1M41 52h1M51 52h1M53 52h1M58 52h1M50 53h1M58 53h1M25 54h1M49 54h1M26 55h1M45 55h1M48 55h1M57 55h1M27 56h1M45 56h1M47 56h1M56 56h1M28 57h2M45 57h2M48 57h1M55 57h1M30 58h2M43 58h2M49 58h1M54 58h1M32 59h2M39 59h4M50 59h4M35 60h4" />
<path stroke="#f8f8f8" d="M30 14h2M29 15h1M31 15h2M7 16h1M30 16h1M32 16h3M7 17h1M31 17h1M33 17h3M7 18h1M7 19h1M6 20h1M21 21h1M20 22h3M21 23h1M32 23h3M19 24h1M31 24h1M33 24h3M32 25h4M33 26h2M41 26h2M40 27h4M39 28h5M38 29h6M38 30h3M42 30h2M39 31h1M41 31h4M41 32h5M42 33h4M42 34h1M45 34h2M44 35h3M43 36h3" />
<path stroke="#f06850" d="M20 23h1M20 24h1" />
<path stroke="#d0d0d0" d="M35 23h1M39 27h1" />
<path stroke="#b83830" d="M19 25h1" />
<path stroke="#f8f898" d="M25 40h1M24 41h2M24 42h3M24 43h3M24 44h3M24 46h3M24 47h3M25 48h2M25 49h2M26 51h2M27 52h1M27 53h1M28 54h1" />
<path stroke="#f0e048" d="M26 40h1M26 41h1M27 42h1M27 43h1M27 44h1M27 46h2M27 47h2M27 48h2M27 49h2M29 50h1M28 51h3M28 52h3M28 53h3M29 54h1" />
<path stroke="#a86800" d="M27 40h1M28 41h1M28 42h1M28 43h1M28 44h1M25 45h3M29 45h1M29 46h1M29 47h1M30 48h1M29 49h2M25 50h4M31 50h1M25 51h1M31 51h1M26 52h1M32 52h1M26 53h1M33 53h1M27 54h1M32 54h2M28 55h4M34 55h1M29 56h1M35 56h1M30 57h1M35 57h2M32 58h3M37 58h1M38 59h1M34 60h1" />
<path stroke="#e0a838" d="M27 41h1M24 45h1M28 45h1M24 48h1M29 48h1M30 50h1M31 52h1M31 53h2M30 54h2M32 55h2M30 56h5M31 57h4M35 58h2M34 59h4" />
</svg>