<svg xmlns="http://www.w3.org/2000/svg" viewBox="0 -0.5 64 64" shape-rendering="crispEdges">
<metadata>Made with Pixels to Svg https://codepen.io/shshaw/pen/XbxvNj</metadata>
<path stroke="#d05038" d="M26 15h1M25 16h1M33 16h1M22 17h3M21 18h1M26 18h1M31 18h2M36 18h1M20 19h1M30 19h1M37 19h1M20 20h1M37 20h1M20 21h1M23 21h1M32 21h2M36 21h3M34 22h1M36 22h3M20 23h1M34 23h2M37 23h2M20 24h1M34 24h2M37 24h1M20 25h1M26 25h1M34 25h2M37 25h1M25 26h3M29 26h1M33 26h3M38 26h1M22 27h3M31 27h4M36 27h3M35 28h4M24 29h1M34 29h2M37 29h1M24 30h1M29 30h1M34 30h2M25 31h1M33 31h3M21 32h1M24 32h1M31 32h4M20 33h1M24 33h1M31 33h4M39 33h4M26 34h2M32 34h2M36 34h4M43 34h1M21 35h1M31 35h1M36 35h4M42 35h2M25 36h2M35 36h7M27 37h1M34 37h2M32 38h6M30 39h1M34 39h4M36 40h1M39 40h1M26 41h1M40 41h1M44 41h1M40 42h1M36 43h1M39 43h2M27 44h2M37 44h4M28 45h2M38 45h2M30 46h2M38 46h1M31 47h2M37 47h2M27 48h1M30 48h3M39 48h2M29 49h1M31 49h1M40 49h1M38 50h1M40 50h1" />
<path stroke="#903020" d="M27 15h2M31 15h3M25 17h1M33 17h4M37 18h1M22 21h1M34 21h1M21 22h1M35 22h1M36 23h1M36 24h1M36 25h1M20 26h1M37 26h1M21 27h1M25 27h2M30 27h1M22 28h3M31 28h2M22 29h1M33 29h1M36 29h1M27 30h2M33 30h1M36 30h1M26 31h1M29 31h1M32 31h1M23 32h1M25 32h1M30 32h1M35 32h1M39 32h3M26 33h1M38 33h1M43 33h1M24 34h1M31 34h1M42 34h1M25 35h2M30 35h1M32 35h1M35 35h1M41 35h1M20 36h1M24 36h1M27 36h1M43 36h1M28 37h1M33 37h1M36 37h1M41 37h1M28 38h1M27 39h1M38 39h1M45 39h2M27 40h1M40 40h2M44 40h1M42 41h2M26 42h1M28 42h1M42 42h4M26 43h1M28 43h1M42 43h3M26 44h1M29 44h1M36 44h1M42 44h2M27 45h1M30 45h2M37 45h1M41 45h1M28 46h2M37 46h1M39 46h1M27 47h2M39 47h1M36 48h1M28 49h1M36 49h1" />
<path stroke="#101010" d="M29 15h1M30 16h1M34 16h1M38 19h1M38 20h1M39 21h1M39 22h1M39 23h1M38 24h1M38 25h1M36 26h1M39 26h1M35 27h1M39 27h1M33 28h2M39 28h1M26 29h1M30 29h1M38 29h1M22 30h1M26 30h1M30 30h1M37 30h1M21 31h2M30 31h1M36 31h1M23 33h1M35 33h3M34 34h2M33 35h2M22 36h2M28 36h2M32 36h3M42 36h1M25 37h2M30 37h3M37 37h4M27 38h1M38 38h1M39 39h1M46 40h1M41 41h1M46 41h1M41 42h1M41 43h1M45 43h1M41 44h1M44 44h1M40 45h1M42 45h2M32 46h5M40 46h2M33 47h1M36 47h1M40 47h1M33 48h1M41 48h1M32 49h1M41 49h1M26 50h2M31 50h1M42 50h1M29 51h2M39 51h1M42 51h1M37 52h2M40 52h2" />
<path stroke="#f87860" d="M26 16h4M31 16h2M26 17h7M25 18h1M27 18h4M33 18h3M25 19h5M31 19h6M21 20h1M24 20h13M21 21h1M25 21h1M27 21h1M29 21h3M35 21h1M26 22h1M28 22h1M30 22h4M21 23h1M26 23h2M29 23h5M21 24h2M25 24h9M21 25h5M27 25h7M21 26h4M28 26h1M30 26h3M27 27h3M27 28h3M23 29h1M27 29h3M23 30h1M23 31h2M22 32h1M21 33h2M21 34h3M22 35h3M29 37h1M29 38h3M28 39h2M28 40h2M33 40h3M37 40h2M45 40h1M27 41h2M35 41h5M45 41h1M27 42h1M36 42h4M27 43h1M37 43h2M29 47h2M28 48h2M37 48h2M37 49h3M39 50h1" />
<path stroke="#f8c080" d="M22 18h3M21 19h4M22 20h2M24 21h1M26 21h1M28 21h1M22 22h4M27 22h1M29 22h1M22 23h4M28 23h1M23 24h2" />
<path stroke="#f8f8f8" d="M25 28h2M30 28h1M25 29h1M31 29h2M25 30h1M31 30h2M31 31h1M19 32h2M42 32h2M40 34h2M19 35h2M26 49h1M30 49h1M29 50h1M37 50h1M37 51h1M41 51h1" />
<path stroke="#707078" d="M19 31h2M42 31h2M18 32h1M44 32h1M19 33h1M44 33h1M19 34h1M45 34h1M18 35h1M44 35h1M19 36h1M30 36h2M21 37h1M26 48h1M25 49h1M25 50h1M28 50h1M36 50h1M36 51h1M38 51h1M40 51h1" />
<path stroke="#f8f8b0" d="M27 31h2M26 32h3M32 39h1M31 40h2M30 41h4M30 42h5M30 43h4" />
<path stroke="#f0d038" d="M29 32h1M25 33h1M28 33h3M25 34h1M28 34h3M27 35h2M34 41h1M29 43h1M34 43h2M31 44h4" />
<path stroke="#d0a800" d="M27 33h1M29 35h1M31 39h1M33 39h1M30 40h1M29 41h1M29 42h1M35 42h1M30 44h1M35 44h1M32 45h5" />
<path stroke="#c0c0c0" d="M20 34h1M44 34h1M40 35h1M21 36h1M27 49h1M30 50h1M41 50h1" />
</svg>