<svg xmlns="http://www.w3.org/2000/svg" viewBox="0 -0.5 67 64" shape-rendering="crispEdges">
<metadata>Made with Pixels to Svg https://codepen.io/shshaw/pen/XbxvNj</metadata>
<path stroke="#901000" d="M28 11h2M28 12h1M30 12h1M28 13h1M30 13h1M28 14h1M30 14h1M28 15h1M30 15h1M29 16h1M29 17h1M31 17h1M51 17h1M30 18h1M30 19h1M32 19h1M50 19h1M31 20h1M51 20h1M49 21h1M47 22h2M43 24h2M47 24h1M36 25h2M42 25h1M29 26h6M36 26h1M38 26h1M24 27h3M36 27h1M38 27h1M42 27h1M23 28h2M36 28h1M38 28h1M40 28h1M21 29h2M35 29h1M38 29h1M20 30h1M37 30h1M19 31h1M37 31h1M41 31h1M16 32h8M35 32h1M37 32h1M41 32h1M26 33h2M34 33h1M36 33h1M17 34h2M28 34h1M14 35h1M16 35h1M29 35h1M33 35h1M35 35h1M15 36h1M30 36h1M35 36h1M32 37h1M34 37h1M34 38h1M14 39h1M33 39h1M14 40h1M33 40h1M14 41h1M34 41h1M14 42h1M35 42h1M27 43h6M36 43h1M15 44h1M19 44h3M25 44h2M33 44h2M18 45h1M22 45h2M35 45h2M17 46h1M24 46h2M34 46h1M37 46h1M16 47h1M26 47h1M33 47h1M16 48h1M21 48h1M23 48h1M31 48h2M17 49h1M21 49h1M24 49h1M28 49h3M18 50h2M24 50h1M26 50h1M29 50h1M22 51h2M28 51h1M23 52h2M26 52h1" />
<path stroke="#f8a870" d="M29 12h1M29 13h1M29 14h1M29 15h1M30 16h1M51 18h1M37 26h1M28 27h1M33 27h1M37 27h1M26 28h7M37 28h1M23 29h1M27 29h5M33 29h1M36 29h1M22 30h5M28 30h3M32 30h1M36 30h1M24 31h3M28 31h2M31 31h1M33 31h1M36 31h1M32 32h1M20 33h1M22 33h4M35 33h1M19 34h5M25 34h1M27 34h1M34 34h1M17 35h5M26 35h1M16 36h5M33 36h1M16 37h4M15 38h5M15 39h5M15 40h5M15 41h2M18 41h2M16 42h2" />
<path stroke="#707088" d="M33 12h3M31 13h2M36 13h1M37 14h1M37 15h1M38 16h1M45 16h3M39 17h4M48 17h3M40 29h1M40 30h1M41 34h1M42 36h1M43 38h1M35 39h1M34 40h1M35 41h1M40 41h1M39 42h1" />
<path stroke="#f8f8f8" d="M33 13h1M35 13h1M31 14h3M35 14h2M31 15h3M35 15h2M32 16h2M35 16h3M32 17h3M36 17h3M44 17h2M47 17h1M36 18h10M47 18h3M37 19h1M39 19h2M42 19h3M46 19h4M38 20h1M40 20h2M43 20h1M47 20h2M39 21h1M39 29h1M38 30h2M38 31h2M38 32h1M40 32h1M37 33h1M39 33h2M36 34h2M39 34h2M36 35h1M38 35h4M22 36h4M36 36h1M38 36h4M21 37h6M38 37h4M21 38h3M25 38h3M37 38h1M39 38h2M42 38h1M22 39h6M36 39h1M38 39h1M41 39h2M23 40h4M39 40h1M41 40h2" />
<path stroke="#a8a8b8" d="M34 13h1M34 14h1M34 15h1M34 16h1M44 16h1M35 17h1M43 17h1M46 17h1M35 18h1M46 18h1M35 19h1M45 19h1M36 20h1M44 20h1M36 21h1M43 21h1M37 22h1M42 22h1M41 23h1M40 24h1M39 28h1M39 32h1M38 33h1M38 34h1M37 35h1M37 36h1M36 37h1M42 37h1M41 38h1M39 39h2M37 40h2" />
<path stroke="#101010" d="M31 16h1M52 17h1M32 18h1M50 18h1M52 18h1M52 19h1M33 20h1M49 20h1M32 21h1M34 21h1M51 21h1M33 22h1M35 22h1M50 22h1M17 23h1M34 23h1M36 23h1M45 23h2M49 23h1M13 24h2M18 24h1M35 24h1M37 24h1M48 24h1M16 25h2M22 25h1M35 25h1M39 25h3M45 25h2M12 26h1M18 26h1M23 26h1M43 26h2M14 27h1M39 27h1M15 28h1M42 28h1M42 29h1M35 30h1M42 30h1M13 31h3M35 31h1M40 31h1M41 33h1M33 34h1M42 35h1M32 36h1M31 37h1M43 37h1M24 38h1M31 38h1M31 39h1M44 39h1M31 40h1M44 40h1M41 41h4M47 41h1M36 42h3M47 42h1M39 43h1M41 43h2M46 43h1M38 44h1M44 45h1M39 46h2M43 46h1M19 47h4M37 47h1M44 47h1M19 48h2M27 48h1M36 48h1M43 48h1M19 49h2M27 49h1M35 49h1M43 49h1M20 50h3M27 50h1M33 50h2M41 50h2M26 51h1M31 51h2M41 51h1M25 52h1M27 52h4M25 56h5M34 59h1M34 60h1M34 61h1" />
<path stroke="#f86820" d="M30 17h1M31 18h1M31 19h1M51 19h1M32 20h1M50 20h1M33 21h1M50 21h1M34 22h1M49 22h1M35 23h1M47 23h2M36 24h1M45 24h2M44 25h1M35 26h1M29 27h1M34 27h1M25 28h1M35 28h1M32 29h1M34 29h1M37 29h1M21 30h1M31 30h1M33 30h2M20 31h4M30 31h1M32 31h1M34 31h1M24 32h3M31 32h1M33 32h2M36 32h1M16 33h4M21 33h1M28 33h3M32 33h2M15 34h1M24 34h1M26 34h1M29 34h2M32 34h1M15 35h1M27 35h2M31 35h1M34 35h1M27 36h3M34 36h1M28 37h3M33 37h1M29 38h2M32 38h2M20 39h1M29 39h2M32 39h1M20 40h2M28 40h3M32 40h1M17 41h1M20 41h3M27 41h1M33 41h1M15 42h1M18 42h8M15 43h10M16 44h3M24 44h1M27 44h5M16 45h2M26 45h4" />
<path stroke="#d8d8e0" d="M33 18h2M33 19h2M36 19h1M38 19h1M41 19h1M34 20h2M37 20h1M39 20h1M42 20h1M45 20h2M35 21h1M37 21h2M40 21h3M44 21h5M36 22h1M38 22h4M43 22h4M37 23h4M42 23h3M38 24h2M41 24h2M35 37h1M37 37h1M35 38h2M38 38h1M34 39h1M37 39h1M43 39h1M35 40h2M40 40h1M43 40h1M36 41h4" />
<path stroke="#806810" d="M17 22h2M19 23h1M11 24h2M21 24h1M11 25h1M15 25h1M13 26h1M19 26h2M15 27h1M16 28h1M12 29h3M11 30h1M12 31h1M40 43h1M43 43h1M39 44h1M44 44h2M42 45h2M38 46h1M41 46h1M42 48h1M36 49h2M38 50h1M19 51h1M21 51h1M39 51h1M19 52h1M21 52h1M40 52h2M20 53h1M21 54h1M22 55h2M24 56h1M30 56h1M32 56h1M31 57h1M33 57h1M34 58h1" />
<path stroke="#e8f880" d="M18 23h1M20 24h1M12 25h3M21 25h1M15 26h3M21 26h1M18 27h3M18 28h3M15 29h5M17 30h2M27 42h6M46 42h1M25 43h2M33 43h2M44 43h2M35 44h2M42 44h2M37 45h5M42 46h1M41 47h3M37 48h5M38 49h5M39 50h2M20 51h1M40 51h1M20 52h1M21 53h1M22 54h2M24 55h7M31 56h1M32 57h1M33 58h1M33 59h1M33 60h1" />
<path stroke="#d8c058" d="M20 23h1M19 24h1M18 25h3M14 26h1M22 26h1M16 27h2M21 27h3M17 28h1M21 28h2M20 29h1M12 30h5M19 30h1M16 31h3M28 41h4M26 42h1M33 42h1M40 44h2M38 47h3" />
<path stroke="#d81800" d="M38 25h1M43 25h1M28 26h1M39 26h4M27 27h1M30 27h3M35 27h1M40 27h2M33 28h2M41 28h1M24 29h3M41 29h1M27 30h1M41 30h1M27 31h1M27 32h4M15 33h1M31 33h1M14 34h1M16 34h1M31 34h1M35 34h1M22 35h4M30 35h1M32 35h1M14 36h1M21 36h1M26 36h1M31 36h1M15 37h1M20 37h1M27 37h1M14 38h1M20 38h1M28 38h1M21 39h1M28 39h1M22 40h1M27 40h1M23 41h4M32 41h1M34 42h1M14 43h1M35 43h1M37 43h2M22 44h2M32 44h1M37 44h1M15 45h1M24 45h2M30 45h5M16 46h1M26 46h8M35 46h2M27 47h6M34 47h3M18 48h1M22 48h1M28 48h3M33 48h3M18 49h1M22 49h2M31 49h4M23 50h1M28 50h1M30 50h3M27 51h1M29 51h2" />
<path stroke="#f8b090" d="M19 45h3M18 46h1M22 46h2M18 47h1M24 47h2M17 48h1M25 48h2M26 49h1" />
<path stroke="#f87858" d="M19 46h3M17 47h1M23 47h1M24 48h1M25 49h1M25 50h1M24 51h2" />
</svg>