<svg xmlns="http://www.w3.org/2000/svg" viewBox="0 -0.5 64 64" shape-rendering="crispEdges">
<metadata>Made with Pixels to Svg https://codepen.io/shshaw/pen/XbxvNj</metadata>
<path stroke="#303870" d="M23 11h2M40 11h1M22 12h1M39 12h1M20 13h1M42 13h1M21 14h3M41 14h4M20 15h4M42 15h5M49 15h3M20 16h1M44 16h5M19 17h1M42 17h2M45 17h4M20 18h2M43 18h1M45 18h5M11 19h1M18 19h1M20 19h3M26 19h1M42 19h2M45 19h4M10 20h1M21 20h2M40 20h3M44 20h3M9 21h1M43 21h3M50 21h1M7 22h1M9 22h1M21 22h1M34 22h1M6 23h1M9 23h1M21 23h1M5 24h1M8 24h1M20 24h1M46 24h2M49 24h3M7 25h2M24 25h1M48 25h3M4 26h1M7 26h1M23 26h1M48 26h3M6 27h2M14 27h1M22 27h1M49 27h4M58 27h1M6 28h1M18 28h1M44 28h1M49 28h3M58 28h1M3 29h1M5 29h2M18 29h2M48 29h3M52 29h1M58 29h1M3 30h3M26 30h1M44 30h1M48 30h3M52 30h1M3 31h3M28 31h1M44 31h1M49 31h1M52 31h1M2 32h1M43 32h1M49 32h1M59 32h1M2 33h3M30 33h1M47 33h1M49 33h1M59 33h1M2 34h2M12 34h1M15 34h1M30 34h1M39 34h1M47 34h1M49 34h1M59 34h1M2 35h2M18 35h1M29 35h1M40 35h1M45 35h1M48 35h3M3 36h1M11 36h1M20 36h2M28 36h1M35 36h1M41 36h1M43 36h2M48 36h3M2 37h1M23 37h2M27 37h1M36 37h1M42 37h2M47 37h4M62 37h1M2 38h1M16 38h1M25 38h1M31 38h7M45 38h2M51 38h1M61 38h1M2 39h1M10 39h1M16 39h1M46 39h2M50 39h1M53 39h2M59 39h2M2 40h1M16 40h1M29 40h1M37 40h2M46 40h1M50 40h1M9 41h1M50 41h1M2 42h2M9 42h1M15 42h1M51 42h2M61 42h2M1 43h1M3 43h1M15 43h1M54 43h6M0 45h1M0 46h1M0 47h1M17 47h1M1 48h1M15 48h2M2 49h1M13 49h2M5 50h6" />
<path stroke="#101010" d="M41 11h1M21 12h1M25 12h1M42 12h2M19 13h1M25 13h1M39 13h1M44 13h2M18 14h1M24 14h1M40 14h1M46 14h1M17 15h1M24 15h1M40 15h2M47 15h1M16 16h2M21 16h3M41 16h3M52 16h1M17 17h1M20 17h1M23 17h1M41 17h1M44 17h1M53 17h1M17 18h1M19 18h1M24 18h1M40 18h1M44 18h1M53 18h1M10 19h1M17 19h1M19 19h1M25 19h1M38 19h2M44 19h1M49 19h1M54 19h1M9 20h1M18 20h3M23 20h2M39 20h1M43 20h1M47 20h3M54 20h1M8 21h1M18 21h1M20 21h4M40 21h3M46 21h1M55 21h1M17 22h1M23 22h1M43 22h3M50 22h1M56 22h1M17 23h1M24 23h1M43 23h1M46 23h1M49 23h2M56 23h1M16 24h3M24 24h1M42 24h1M48 24h1M57 24h1M4 25h1M15 25h3M19 25h1M42 25h1M47 25h1M51 25h1M57 25h1M8 26h1M15 26h1M17 26h1M43 26h1M51 26h1M58 26h1M3 27h1M17 27h3M44 27h1M48 27h1M59 27h1M3 28h1M7 28h1M14 28h1M16 28h2M19 28h3M45 28h1M48 28h1M52 28h1M60 28h1M2 29h1M14 29h2M17 29h1M20 29h1M43 29h1M46 29h2M51 29h1M60 29h1M2 30h1M6 30h1M14 30h2M18 30h2M24 30h2M41 30h3M47 30h1M51 30h1M61 30h1M2 31h1M15 31h1M24 31h1M42 31h2M48 31h1M50 31h1M61 31h1M1 32h1M3 32h2M15 32h2M24 32h1M26 32h1M28 32h1M40 32h1M42 32h1M48 32h1M50 32h1M62 32h1M1 33h1M15 33h2M28 33h1M48 33h1M50 33h1M62 33h1M1 34h1M4 34h1M16 34h1M48 34h1M50 34h1M62 34h1M1 35h1M16 35h2M47 35h1M51 35h1M62 35h1M2 36h1M16 36h2M47 36h1M51 36h1M61 36h1M17 37h1M21 37h2M44 37h1M46 37h1M51 37h2M61 37h1M18 38h1M20 38h1M22 38h1M43 38h2M47 38h4M63 38h1M19 39h1M23 39h1M38 39h1M43 39h1M45 39h1M48 39h1M63 39h1M23 40h1M28 40h1M39 40h1M42 40h1M45 40h1M47 40h1M63 40h1M24 41h1M27 41h1M30 41h7M40 41h2M46 41h1M63 41h1M16 42h1M25 42h2M63 42h1M17 43h1M52 43h1M60 43h1M62 43h1M18 44h1M52 44h1M55 44h2M60 44h1M62 44h1M18 45h1M53 45h2M56 45h1M59 45h1M61 45h1M18 46h1M57 46h2M18 47h1M17 48h1M16 49h1M4 50h1M11 50h1M16 50h1M5 51h1M10 51h1M3 52h1M10 52h1M13 52h1M15 52h1M14 53h1M9 54h1M7 55h2" />
<path stroke="#3860b0" d="M23 12h2M40 12h2M21 13h4M40 13h2M43 13h1M19 14h2M45 14h1M14 15h2M18 15h2M13 16h1M18 16h2M49 16h1M13 17h1M16 17h1M18 17h1M21 17h2M49 17h1M12 18h1M16 18h1M18 18h1M22 18h2M29 18h8M41 18h2M15 19h1M23 19h2M27 19h2M37 19h1M40 19h2M15 20h1M38 20h1M50 20h1M10 21h1M36 21h2M47 21h1M8 22h1M14 22h1M18 22h1M35 22h1M49 22h1M7 23h2M18 23h2M35 23h2M47 23h2M6 24h2M9 24h1M13 24h1M19 24h1M25 24h2M37 24h1M43 24h1M52 24h1M5 25h2M18 25h1M20 25h2M27 25h1M38 25h2M41 25h1M43 25h4M53 25h1M56 25h1M5 26h2M12 26h1M18 26h5M28 26h1M39 26h1M44 26h4M54 26h2M4 27h2M8 27h1M20 27h2M30 27h1M38 27h1M45 27h3M4 28h2M11 28h1M31 28h1M46 28h2M4 29h1M7 29h1M10 29h1M16 29h1M22 29h2M32 29h2M36 29h1M44 29h1M7 30h1M16 30h2M34 30h2M58 30h1M7 31h1M14 31h1M16 31h4M47 31h1M57 31h1M59 31h1M5 32h1M7 32h1M13 32h1M17 32h2M29 32h1M46 32h2M51 32h2M57 32h1M7 33h1M13 33h1M19 33h2M45 33h2M51 33h2M57 33h1M7 34h1M17 34h1M43 34h4M51 34h3M57 34h1M61 34h1M6 35h1M12 35h1M41 35h4M52 35h2M57 35h1M59 35h3M6 36h1M42 36h1M54 36h1M58 36h3M11 37h1M16 37h1M25 37h2M55 37h1M58 37h3M10 38h1M52 38h1M55 38h1M58 38h3M62 38h1M5 39h1M30 39h8M55 39h1M58 39h1M61 39h1M6 40h1M10 40h1M30 40h7M3 41h1M6 41h1M15 41h1M6 42h1M6 43h1M9 43h1M16 43h1M0 44h1M5 44h1M9 44h1M13 44h2M3 45h2M9 45h4M3 49h1M12 49h1" />
<path stroke="#c0d8f8" d="M14 16h2M14 17h2M13 18h3M13 19h2M29 19h8M14 20h1M28 20h10M30 21h6" />
<path stroke="#80c8f8" d="M50 16h2M50 17h2M12 19h1M11 20h3M11 21h3M26 21h1M10 22h4M25 22h1M27 22h1M31 22h3M10 23h3M26 23h1M30 23h4M10 24h3M29 24h1M31 24h2M9 25h3M28 25h1M30 25h1M9 26h3M9 27h2M9 28h2M6 32h1M5 33h2M29 33h1M5 34h2M27 34h2M4 35h2M8 35h1M4 36h2M7 36h3M5 37h1M7 37h4M6 38h4M6 39h4M7 40h2M8 41h1M54 41h2M7 42h1M54 42h2M8 43h1M7 44h1M3 46h7M3 47h5M3 48h5M5 49h3" />
<path stroke="#58a0f8" d="M52 17h1M51 18h2M51 19h2M25 20h2M52 20h2M14 21h1M24 21h2M27 21h1M52 21h2M24 22h1M26 22h1M28 22h2M40 22h3M52 22h3M13 23h1M25 23h1M27 23h1M34 23h1M39 23h4M53 23h2M28 24h1M30 24h1M33 24h4M39 24h3M53 24h3M12 25h1M29 25h1M31 25h6M54 25h2M29 26h7M11 27h1M31 27h4M11 29h1M21 29h1M8 30h1M10 30h3M20 30h1M22 30h2M8 31h3M12 31h1M21 31h3M8 32h3M12 32h1M20 32h4M8 33h5M21 33h4M8 34h4M24 34h3M56 34h1M9 35h3M56 35h1M10 36h1M56 36h2M3 37h1M12 37h1M56 37h2M3 38h2M11 38h3M56 38h2M3 39h2M11 39h2M51 39h2M56 39h2M62 39h1M3 40h3M9 40h1M11 40h2M52 40h8M4 41h2M7 41h1M11 41h1M56 41h1M4 42h2M8 42h1M56 42h1M4 43h2M7 43h1M1 44h1M4 44h1M6 44h1M8 44h1M1 45h2M5 45h3M13 45h2M1 46h2M10 46h3M1 47h2M8 47h1M2 48h1M8 48h1M8 49h1" />
<path stroke="#4880d0" d="M50 18h1M16 19h1M50 19h1M53 19h1M16 20h2M27 20h1M51 20h1M15 21h3M19 21h1M28 21h2M38 21h2M48 21h2M51 21h1M54 21h1M15 22h2M19 22h2M22 22h1M30 22h1M36 22h4M46 22h3M51 22h1M55 22h1M14 23h3M20 23h1M22 23h2M28 23h2M37 23h2M44 23h2M51 23h2M55 23h1M14 24h2M21 24h3M27 24h1M38 24h1M44 24h2M56 24h1M13 25h2M22 25h2M37 25h1M40 25h1M52 25h1M13 26h2M36 26h3M52 26h2M56 26h2M12 27h2M35 27h3M53 27h5M8 28h1M12 28h2M32 28h6M53 28h5M59 28h1M8 29h2M12 29h2M34 29h2M45 29h1M53 29h5M59 29h1M9 30h1M13 30h1M21 30h1M45 30h2M53 30h5M59 30h2M6 31h1M11 31h1M13 31h1M20 31h1M45 31h2M51 31h1M53 31h4M58 31h1M60 31h1M11 32h1M14 32h1M19 32h1M44 32h2M53 32h4M58 32h1M60 32h2M14 33h1M17 33h2M39 33h1M42 33h3M53 33h4M58 33h1M60 33h2M13 34h2M18 34h6M29 34h1M40 34h3M54 34h2M58 34h1M60 34h1M7 35h1M13 35h3M19 35h10M54 35h2M58 35h1M12 36h4M22 36h6M34 36h1M52 36h2M55 36h1M4 37h1M6 37h1M13 37h3M33 37h3M53 37h2M5 38h1M14 38h2M53 38h2M13 39h3M13 40h3M51 40h1M60 40h3M10 41h1M12 41h3M51 41h3M57 41h6M10 42h5M53 42h1M57 42h4M2 43h1M10 43h5M2 44h2M10 44h3M15 44h3M8 45h1M15 45h3M13 46h5M9 47h8M9 48h6M4 49h1M9 49h3" />
<path stroke="#c8c8c8" d="M25 25h1M40 26h1M27 27h1M40 27h1M28 28h1M39 28h2M27 29h1M38 29h2M36 30h3M25 31h1M35 31h1M37 31h1M34 32h1M36 32h1M32 33h2M7 53h1M7 54h1" />
<path stroke="#a8a8a8" d="M26 25h1M24 26h4M41 26h2M23 27h4M29 27h1M39 27h1M41 27h3M24 28h4M38 28h1M41 28h2M37 29h1M40 29h2M39 30h2M36 31h1M38 31h1M35 32h1M37 32h2M34 33h4M31 34h8M30 35h4M36 35h4M29 36h4M37 36h4M29 37h2M38 37h4M39 38h2M53 44h1M57 44h1M57 45h1M2 51h1M14 51h1M6 52h1M14 52h1M8 53h1M8 54h1" />
<path stroke="#d8d8d8" d="M28 27h1M29 28h2M28 29h4M29 30h5M30 31h5M31 32h3" />
<path stroke="#706870" d="M22 28h2M43 28h1M24 29h2M42 29h1M27 30h1M29 31h1M39 31h1M30 32h1M31 33h1M38 33h1M34 35h1M46 35h1M19 36h1M33 36h1M45 36h1M32 37h1M23 38h2M30 38h1M24 39h1M29 39h1M27 40h1M1 49h1M1 50h1M12 50h1M1 51h1M3 51h1M13 51h1M15 51h1M2 52h1M5 52h1M9 53h1M6 54h1" />
<path stroke="#908890" d="M26 29h1M28 30h1M35 35h1M18 36h1M36 36h1M46 36h1M18 37h3M28 37h1M31 37h1M37 37h1M45 37h1M19 38h1M26 38h4M38 38h1M41 38h2M25 39h4M39 39h4M24 40h3M40 40h2M25 41h2M53 43h1M61 43h1M54 44h1M58 44h2M61 44h1M58 45h1M15 49h1M2 50h2M13 50h3M6 51h4M7 52h3M6 53h1" />
<path stroke="#d04850" d="M26 31h1M40 31h1M25 32h1M27 32h1M41 32h1M26 33h1M40 33h1" />
<path stroke="#804848" d="M27 31h1M41 31h1M39 32h1M25 33h1M27 33h1M41 33h1" />
</svg>