<svg xmlns="http://www.w3.org/2000/svg" viewBox="0 -0.5 64 64" shape-rendering="crispEdges">
<metadata>Made with Pixels to Svg https://codepen.io/shshaw/pen/XbxvNj</metadata>
<path stroke="#802800" d="M39 21h2M37 22h2M41 22h1M35 23h2M42 23h1M33 24h2M41 32h3M41 34h3M39 36h1M38 37h1M37 38h1M36 39h1M29 41h1M26 42h1M30 42h2M28 43h1M32 43h1" />
<path stroke="#f84800" d="M39 22h2M37 23h3M35 24h2M39 31h3M43 33h1M39 34h1M39 37h1M37 39h1M32 42h3M30 43h2M33 43h2" />
<path stroke="#c83800" d="M40 23h2M37 24h3M34 25h3M40 32h1M41 33h2M41 35h2M30 41h1M32 41h1M27 42h3M35 43h1" />
<path stroke="#282828" d="M40 24h2M37 25h3M36 26h1M37 28h1M31 29h1M31 30h1M39 30h3M30 31h2M35 31h3M42 31h1M37 32h3M38 33h3M44 33h1M38 34h1M40 34h1M44 34h1M38 35h3M43 35h1M38 36h1M40 36h3M23 37h1M37 37h1M40 37h1M24 38h1M36 38h1M38 38h2M25 39h1M35 39h1M38 39h1M28 40h6M36 40h2M31 41h1M33 41h1M35 42h2M26 43h1M37 43h1M25 44h2M28 44h1M34 44h3M28 45h2M31 45h3" />
<path stroke="#489040" d="M27 25h2M32 25h1M25 26h1M24 27h1M23 28h1M36 28h1M29 29h1M32 29h1M33 30h1M29 31h1M33 31h1M33 36h1M33 37h1M27 39h1M33 39h1" />
<path stroke="#50c048" d="M29 25h3M30 26h4M32 27h4M33 28h3M33 29h4M34 30h4M34 31h1M32 32h2M21 33h2M30 33h4M22 34h11M23 35h10M23 36h10M24 37h9M25 38h9M28 39h5" />
<path stroke="#306028" d="M33 25h1M26 26h1M34 26h2M36 27h1M37 29h1M28 30h1M38 30h1M38 31h1M21 34h1M22 35h1M22 36h1M26 39h1M34 39h1M27 40h1" />
<path stroke="#98e048" d="M27 26h3M25 27h7M24 28h9M26 29h3M27 30h1M28 31h1M28 32h4M27 33h3" />
<path stroke="#c8a838" d="M21 29h3M20 30h1M21 31h1M25 31h2M23 32h4M36 32h1M37 34h1M37 35h1M36 36h1M34 37h3" />
<path stroke="#806020" d="M24 29h2M26 30h1M20 31h1M27 31h1M21 32h2M27 32h1M34 32h1M23 33h4M37 33h1M33 34h1M33 35h1M37 36h1M34 38h2" />
<path stroke="#505050" d="M30 29h1M30 30h1M25 42h1M24 43h1M29 43h1M27 44h1M30 44h1M33 44h1" />
<path stroke="#f8f8f8" d="M21 30h2M29 30h1M32 30h1M32 31h1M29 44h1M31 44h2" />
<path stroke="#f8d840" d="M23 30h3M22 31h3M35 32h1M34 33h3M34 34h3M34 35h3M34 36h2" />
<path stroke="#909090" d="M25 43h1M27 43h1M36 43h1" />
</svg>