<svg xmlns="http://www.w3.org/2000/svg" viewBox="0 -0.5 64 64" shape-rendering="crispEdges">
<metadata>Made with Pixels to Svg https://codepen.io/shshaw/pen/XbxvNj</metadata>
<path stroke="#909050" d="M16 21h3M15 22h1M23 22h3M14 23h1M22 23h1M26 23h1M14 24h1M21 24h1M27 24h1M15 27h1M14 28h1M13 29h1M15 29h1M18 29h1M17 30h1M12 31h1M11 32h1M22 32h1M24 32h1M11 33h1M10 34h1M20 34h1M23 34h1M25 34h1M10 35h1M9 36h1M19 36h1M25 38h1M21 39h1M24 39h1M19 40h1M23 40h1M22 41h1" />
<path stroke="#f0d800" d="M16 22h3M15 23h4M23 23h3M15 24h3M22 24h5M22 25h4M31 27h1M36 27h1M15 28h1M18 28h1M30 28h3M35 28h3M48 28h1M14 29h1M17 29h1M19 29h1M30 29h1M32 29h4M37 29h2M47 29h3M14 30h1M16 30h1M18 30h2M29 30h2M33 30h2M38 30h4M46 30h2M14 31h1M16 31h1M18 31h1M29 31h6M38 31h5M45 31h2M12 32h1M31 32h5M38 32h8M12 33h4M32 33h13M11 34h7M32 34h12M11 35h8M32 35h11M44 35h1M14 36h5M32 36h10M43 36h1M18 37h1M31 37h10M42 37h1M30 38h12M43 38h1M29 39h12M42 39h1M44 39h1M25 40h15M41 40h1M43 40h1M24 41h15M40 41h1M25 42h13M53 42h1M26 43h10M53 43h2M27 44h8M52 44h3M26 45h1M31 45h3M52 45h3M26 46h1M38 46h3M53 46h2M25 47h3M38 47h3M25 48h4M37 48h4M25 49h3M37 49h4M37 50h3M37 51h2" />
<path stroke="#686020" d="M19 22h1M20 23h1M39 23h1M41 23h1M14 25h1M21 25h1M27 25h1M15 26h1M20 26h1M16 27h5M30 27h1M20 28h1M29 28h1M50 28h1M21 29h1M29 29h1M51 29h1M13 30h1M15 30h1M25 30h1M28 30h1M51 30h1M13 31h1M15 31h1M17 31h1M21 31h1M26 31h1M28 31h1M52 31h1M14 32h2M17 32h1M19 32h2M27 32h1M16 33h3M27 33h1M27 34h1M28 35h1M29 36h2M9 37h1M9 38h1M9 39h1M10 40h1M52 40h1M54 40h1M10 41h1M52 41h1M54 41h1M23 42h2M55 42h1M25 43h1M26 44h1M43 44h1M50 44h1M25 45h1M44 45h1M50 45h1M25 46h1M27 46h1M44 46h1M49 46h1M24 47h1M28 47h2M36 47h1M45 47h1M48 47h1M24 48h1M30 48h2M36 48h1M46 48h2M24 49h1M32 49h1M36 49h1M25 50h1M36 50h1M36 51h1M37 52h1" />
<path stroke="#90d818" d="M37 22h1M43 22h1M33 25h4M44 25h4M32 26h17M32 27h4M37 27h13M33 28h2M38 28h10M49 28h1M31 29h1M36 29h1M39 29h8M50 29h1M31 30h2M35 30h3M42 30h4M48 30h2M35 31h3M43 31h2M47 31h4M36 32h2M47 32h3M48 33h1" />
<path stroke="#70a038" d="M38 22h5M35 23h2M44 23h2M33 24h2M46 24h2M32 25h1M48 25h1M31 26h1M49 26h1M50 27h1" />
<path stroke="#c8b038" d="M19 23h1M19 24h1M18 25h2M16 26h4M21 26h2M26 26h1M21 27h6M16 28h1M19 28h1M21 28h5M20 29h1M22 29h3M20 30h4M50 30h1M19 31h2M22 31h4M51 31h1M13 32h1M16 32h1M18 32h1M21 32h1M25 32h2M28 32h3M46 32h1M50 32h2M19 33h2M25 33h2M28 33h4M45 33h3M49 33h3M18 34h2M22 34h1M26 34h1M28 34h4M44 34h8M19 35h1M21 35h3M26 35h2M29 35h3M43 35h1M45 35h8M21 36h3M26 36h3M31 36h1M42 36h1M44 36h9M26 37h5M41 37h1M43 37h10M26 38h4M42 38h1M44 38h9M25 39h4M41 39h1M43 39h1M45 39h8M40 40h1M42 40h1M44 40h8M53 40h1M39 41h1M41 41h11M53 41h1M38 42h15M54 42h1M37 43h15M36 44h7M44 44h6M51 44h1M35 45h3M40 45h4M45 45h3M51 45h1M33 46h5M41 46h3M50 46h2M41 47h4M49 47h6M29 48h1M41 48h4M48 48h7M29 49h3M41 49h4M50 49h4M26 50h5M41 50h4M40 51h5M38 52h5" />
<path stroke="#b0f030" d="M37 23h2M42 23h2M35 24h11M37 25h7" />
<path stroke="#181818" d="M40 23h1M20 24h1M20 25h1M27 26h1M27 27h1M26 28h1M25 29h1M24 30h1M52 32h1M52 33h1M52 34h1M53 35h1M53 36h1M21 37h1M53 37h1M21 38h1M53 38h1M53 39h1M24 40h1M23 41h1M11 42h1M21 42h2M12 43h2M19 43h2M55 43h1M14 44h5M55 44h1M55 45h1M55 46h1M55 47h1M45 48h1M55 48h1M33 49h3M45 49h1M49 49h1M54 49h1M31 50h1M45 50h1M50 50h4M27 51h4M45 51h1M43 52h2M38 53h5" />
<path stroke="#d8c820" d="M18 24h1M15 25h3M26 25h1M23 26h3M36 43h1M52 43h1M35 44h1M34 45h1M38 45h2M52 46h1M37 47h1M28 49h1M40 50h1M39 51h1" />
<path stroke="#f8e868" d="M17 28h1M16 29h1" />
<path stroke="#587068" d="M23 32h1M21 33h4M21 34h1M24 34h1M20 35h1M24 35h2M20 36h1M24 36h2M19 37h2M24 37h2M19 38h2M24 38h1M19 39h2M23 39h1M20 40h3M20 41h2" />
<path stroke="#f0f0a0" d="M10 36h4M10 37h8M10 38h8M11 39h7M11 40h6M12 41h3M27 45h4M28 46h4" />
<path stroke="#e0d8e8" d="M22 37h2" />
<path stroke="#d0d090" d="M18 38h1M10 39h1M18 39h1M17 40h2M11 41h1M15 41h5M12 42h9M14 43h5M48 45h2M32 46h1M45 46h4M30 47h6M46 47h2M32 48h4" />
<path stroke="#f8f8f8" d="M22 38h2M22 39h1" />
</svg>