<svg xmlns="http://www.w3.org/2000/svg" viewBox="0 -0.5 55 86" shape-rendering="crispEdges">
<metadata>Made with Pixels to Svg https://codepen.io/shshaw/pen/XbxvNj</metadata>
<path stroke="#b4aa8c" d="M24 0h5M33 1h6M39 2h1M41 3h1M39 5h1M26 6h1M42 6h1M25 7h1M41 7h2M23 8h3M41 8h2M25 9h1M41 9h2M25 10h1M25 11h1" />
<path stroke="#a49a7c" d="M29 0h1M24 1h1M40 2h1M25 3h1M22 4h1M27 5h5M35 5h4M31 6h1M33 6h1M40 6h1M24 7h1M26 7h1M33 7h2M40 7h1M22 8h1M26 8h1M32 8h1M24 9h1M26 9h1M40 9h1M41 10h1" />
<path stroke="#e4dab4" d="M25 1h3M26 2h12M26 3h13M23 4h8M32 4h6M24 5h2M32 5h3" />
<path stroke="#ccc29c" d="M28 1h5M25 2h1M38 2h1M39 3h2M31 4h1M38 4h5M23 5h1M26 5h1M40 5h3M24 6h2M32 6h1M34 6h1M41 6h1M32 7h1" />
<path stroke="#7c725c" d="M23 3h2M42 3h1M43 4h1M22 5h1M43 5h1M23 6h1M43 6h1M23 7h1M43 7h1M40 8h1M23 9h1M24 10h1M26 10h1M24 11h1M26 11h1M41 11h1M25 12h1M41 12h1" />
<path stroke="#dcba9c" d="M27 6h1M38 6h2M38 7h2M38 8h2M27 9h2M37 9h3M27 10h1M30 10h1M39 10h1M31 11h1M40 11h1M28 12h1M38 12h3M25 13h1M35 13h1M38 13h3M42 13h1M25 14h1M29 14h1M37 14h3M42 14h1M25 15h1M38 15h2M42 15h1M27 16h1M33 16h1M38 16h2M41 16h1M30 17h1M33 17h2M38 17h1M28 18h1M38 18h1M31 19h7M31 20h5M6 42h2M7 43h2M6 44h4M6 45h3M3 46h1M7 46h1M11 46h2M10 47h3M41 47h2M6 48h2M9 48h2M42 48h3M42 49h3M41 50h4M41 51h2" />
<path stroke="#fce2cc" d="M28 6h3M35 6h3M27 7h5M35 7h3M27 8h5M33 8h5M29 9h8M31 10h5M32 11h2M31 12h4M27 13h2M31 13h4M27 14h2M31 14h5M27 15h11M28 16h5M34 16h4M28 17h2M31 17h2M35 17h2M29 18h1M30 19h1M5 41h2M3 44h3M1 45h2M9 46h2M2 47h1M4 47h1M6 47h1M8 47h2M39 48h3M39 49h3M38 50h2M38 51h1" />
<path stroke="#040204" d="M43 8h1M43 9h1M37 10h2M42 10h1M29 11h1M35 11h1M42 11h1M30 12h1M36 12h1M42 12h1M30 13h1M36 13h1M43 13h1M43 14h1M43 15h1M42 16h1M40 17h2M38 19h1M38 20h1M33 21h3M39 21h1M47 25h1M47 26h1M47 27h1M48 28h1M48 29h1M48 30h1M49 31h1M50 32h1M50 33h1M50 34h1M50 35h1M51 37h1M51 38h1M52 39h1M53 41h1M45 42h1M53 42h1M45 43h1M54 43h1M11 44h1M54 44h1M12 45h1M54 45h1M13 46h1M42 46h2M54 46h1M1 47h1M13 47h1M54 47h1M3 48h3M8 48h1M12 48h1M26 48h2M54 48h1M6 49h5M25 49h2M32 49h1M52 49h2M9 50h1M14 50h3M25 50h2M32 50h1M40 50h1M46 50h1M49 50h2M10 51h4M28 51h4M45 51h1M47 51h1M39 52h1M47 52h1M46 53h1M46 54h1M46 55h1M46 56h1M46 57h1M46 58h1M29 59h1M46 59h1M29 60h1M30 61h1M30 62h1M30 63h1M30 64h1M30 65h2M30 66h1M44 66h1M30 67h1M32 67h1M44 67h1M19 68h1M32 68h1M44 68h1M19 69h1M29 69h1M44 69h1M19 70h1M29 70h1M33 70h1M44 70h1M19 71h1M29 71h1M34 71h1M44 71h1M20 72h1M29 72h1M34 72h1M45 72h1M20 73h1M29 73h1M45 73h1M20 74h1M35 74h1M45 74h1M20 75h1M28 75h1M35 75h1M45 75h1M28 76h1M45 76h1M19 77h1M29 77h1M45 77h1M19 78h1M29 78h1M45 78h1M20 79h1M29 79h1M45 79h1M21 80h1M23 80h2M29 80h1M35 80h1M45 80h1M18 81h1M26 81h3M35 81h1M17 82h1M28 82h1M36 82h2M44 82h1M17 83h1M25 83h3M37 83h1M45 83h1M18 84h7M37 84h2M45 84h1M39 85h6" />
<path stroke="#6c4a44" d="M28 10h2M36 10h1M27 11h2M30 11h1M34 11h1M36 11h4M26 12h1M35 12h1M26 13h1M26 14h1M39 17h1M27 18h1M31 18h4M36 18h1M39 18h1M28 19h1M37 20h1M32 21h1M4 41h1M7 41h1M4 42h1M8 42h2M4 43h2M9 43h1M10 44h1M11 45h1M0 46h1M4 46h3M3 47h1M7 47h1M39 47h1M43 47h1M2 48h1M11 48h1M38 48h1M45 48h1M45 49h1M39 51h1M22 80h1M19 81h5M18 82h1M24 82h4M39 82h4M22 83h3M38 83h1M39 84h1M43 84h2" />
<path stroke="#c49274" d="M40 10h1M27 12h1M30 14h1M36 14h1M26 15h1M41 15h1M26 16h1M40 16h1M27 17h1M37 17h1M30 18h1M35 18h1M37 18h1M29 19h1M36 21h1M32 22h5M32 23h3M31 24h3M31 25h2M32 26h1M5 40h2M5 42h1M3 43h1M6 43h1M1 44h2M0 45h1M3 45h3M9 45h2M1 46h2M8 46h1M5 47h1M40 47h1M38 49h1M37 50h1M45 50h1M37 51h1M43 51h2M38 52h1" />
<path stroke="#cccadc" d="M29 12h1M37 12h1M27 22h1M25 23h1M23 24h1M25 24h1M21 25h1M24 25h1M21 26h1M24 26h1M40 26h1M44 26h1M20 27h1M24 27h1M40 27h1M44 27h1M20 28h1M24 28h3M37 28h1M40 28h1M20 29h1M24 29h1M38 29h3M19 30h2M23 30h1M40 30h1M43 30h1M19 31h2M23 31h1M39 31h1M43 31h1M19 32h2M23 32h1M39 32h1M42 32h1M47 32h2M19 33h2M23 33h1M39 33h1M42 33h1M47 33h1M18 34h3M23 34h1M38 34h1M42 34h1M46 34h1M18 35h2M23 35h1M38 35h1M43 35h1M46 35h1M49 35h1M18 36h2M23 36h1M38 36h1M48 36h2M18 37h2M23 37h1M38 37h1M42 37h2M47 37h4M17 38h3M23 38h1M37 38h1M42 38h2M46 38h5M17 39h1M24 39h1M37 39h1M42 39h2M45 39h7M19 40h1M24 40h1M37 40h1M42 40h3M46 40h3M24 41h1M37 41h1M41 41h4M46 41h1M49 41h4M24 42h1M36 42h1M41 42h4M51 42h2M18 43h1M24 43h1M36 43h1M40 43h5M49 43h2M53 43h1M17 44h2M20 44h1M24 44h1M36 44h1M39 44h4M50 44h3M14 45h5M20 45h1M24 45h1M35 45h1M37 45h4M51 45h2M14 46h5M20 46h5M35 46h6M52 46h2M14 47h5M20 47h5M34 47h5M51 47h3M14 48h5M20 48h5M34 48h4M50 48h4M13 49h5M19 49h6M27 49h4M34 49h4M48 49h3M12 50h2M19 50h1M21 50h4M27 50h4M34 50h3M47 50h1M18 51h2M21 51h3M34 51h3M18 52h2M21 52h3M34 52h4M40 52h1M18 53h2M21 53h3M34 53h5M40 53h6M18 54h2M21 54h3M34 54h5M40 54h6M18 55h2M21 55h3M34 55h5M40 55h6M18 56h2M21 56h3M34 56h5M40 56h6M18 57h2M21 57h3M34 57h5M40 57h6M18 58h2M21 58h2M34 58h5M40 58h6M18 59h2M21 59h2M34 59h5M40 59h6M19 60h1M21 60h2M34 60h5M40 60h6M19 61h1M21 61h2M34 61h5M40 61h5M20 62h3M34 62h6M45 62h1M19 63h4M34 63h12M19 64h4M35 64h11M20 65h3M35 65h9M35 66h6" />
<path stroke="#645a34" d="M24 13h1M41 13h1M24 14h1M40 14h2M24 15h1M40 15h1M25 16h1M30 20h1M36 20h1M35 23h1M31 26h1M25 51h3M32 51h1M24 52h1M26 52h1M28 52h1M33 52h1M24 53h1M28 53h1M33 53h1M24 54h1M26 54h1M28 54h1M33 54h1M24 55h1M26 55h1M28 55h1M33 55h1M24 56h1M27 56h2M33 56h1M24 57h1M27 57h2M33 57h1M28 58h2M33 58h1M23 59h1M28 59h1M33 59h1M23 60h1M33 60h1M23 61h1M33 61h1M23 62h1M33 62h1M23 63h1M31 63h1M33 63h1M23 64h1M31 64h1M23 65h1M34 65h1M19 66h1M21 66h2M32 66h1M34 66h1M42 66h2M19 67h1M22 67h1M29 67h1M36 67h5M22 68h1M29 68h1M33 68h1M38 68h1M22 69h1M33 69h1M38 69h1M22 70h1M22 71h1M22 72h1M35 72h2M22 73h2M35 73h1M37 73h2M23 74h1M28 74h1M24 75h1M40 75h1M20 76h1M24 76h1M36 76h1M41 76h1M25 77h1M36 77h1M41 77h1M25 78h1M36 78h1M42 78h1M25 79h2M36 79h1M42 79h1M25 80h2M42 80h1M39 81h1M43 81h1M45 81h1" />
<path stroke="#fcfafc" d="M29 13h1M37 13h1M26 23h1M41 23h1M24 24h1M26 24h1M41 24h4M23 25h1M25 25h1M41 25h4M46 25h1M23 26h1M25 26h1M41 26h3M45 26h2M23 27h1M25 27h2M41 27h3M45 27h2M22 28h2M41 28h2M44 28h4M22 29h2M25 29h3M37 29h1M41 29h2M44 29h4M22 30h1M24 30h4M37 30h3M41 30h2M44 30h4M22 31h1M24 31h3M36 31h3M40 31h3M44 31h4M22 32h1M24 32h3M36 32h3M40 32h2M43 32h4M49 32h1M22 33h1M24 33h3M36 33h3M40 33h2M43 33h4M48 33h2M22 34h1M24 34h3M36 34h2M39 34h3M43 34h3M47 34h3M21 35h2M24 35h3M36 35h2M39 35h3M44 35h2M47 35h2M21 36h2M24 36h3M36 36h2M39 36h3M44 36h4M21 37h2M24 37h2M36 37h2M39 37h3M46 37h1M21 38h2M24 38h2M35 38h2M38 38h4M21 39h3M25 39h1M35 39h2M38 39h4M16 40h3M21 40h3M25 40h1M35 40h2M38 40h4M17 41h2M20 41h4M25 41h1M35 41h2M38 41h3M14 42h3M20 42h4M25 42h1M35 42h1M37 42h4M12 43h6M20 43h4M25 43h1M35 43h1M37 43h3M13 44h4M21 44h3M35 44h1M37 44h2M46 44h4M21 45h3M36 45h1M43 45h8M44 46h8M45 47h6M46 48h4M46 49h2" />
<path stroke="#544274" d="M29 20h1M31 21h1M37 21h2M31 22h1M37 22h1M31 23h1M36 23h1M40 23h1M29 24h1M34 24h2M40 24h1M30 25h1M33 25h1M36 25h1M40 25h1M28 26h1M30 26h1M33 26h1M37 26h1M39 26h1M28 27h1M31 27h2M37 27h1M39 27h1M28 28h1M31 28h1M36 28h1M38 28h2M28 29h1M36 29h1M36 30h1M27 31h1M27 32h1M35 32h1M27 33h1M35 33h1M27 34h1M35 34h1M27 35h1M35 35h1M35 36h1M26 37h1M35 37h1M26 38h1M26 39h1M34 39h1M26 40h1M34 40h1M26 41h1M34 41h1M26 42h1M34 42h1M34 43h1M25 44h1M34 44h1M25 45h1M34 45h1M25 46h1M25 47h1M33 47h1M28 48h5" />
<path stroke="#3c4a6c" d="M27 21h2M25 22h2M40 22h2M23 23h2M42 23h3M21 24h1M45 24h2M20 25h1M20 26h1M19 27h1M21 27h1M19 28h1M19 29h1M18 30h1M18 31h1M18 32h1M17 34h1M17 35h1M17 36h1M43 36h1M44 37h1M16 38h1M44 38h1M16 39h1M44 39h1M15 40h1M45 40h1M14 41h1M19 41h1M45 41h1M10 42h4M18 42h2M46 42h1M19 43h1M46 43h2M12 44h1M19 44h1M43 44h3M13 45h1M19 45h1M41 45h2M19 46h1M41 46h1M19 47h1M44 47h1M13 48h1M19 48h1M25 48h1M33 48h1M11 49h2M18 49h1M31 49h1M33 49h1M10 50h2M17 50h2M31 50h1M33 50h1M17 51h1M33 51h1M40 51h1M46 51h1M17 52h1M41 52h6M17 53h1M17 54h1M17 55h1M17 56h1M17 57h1M17 58h1M17 59h1M18 60h1M46 60h1M18 61h1M46 61h1M18 62h1M46 62h1M18 63h1M46 63h1M18 64h1M46 64h1M19 65h1M45 65h1" />
<path stroke="#8472ac" d="M29 21h2M28 22h1M30 22h1M38 22h2M27 23h1M30 23h1M37 23h3M27 24h1M30 24h1M36 24h1M38 24h2M26 25h1M29 25h1M34 25h2M39 25h1M26 26h1M29 26h1M34 26h3M27 27h1M29 27h2M33 27h4M27 28h1M30 28h1M32 28h2M31 29h1M28 30h1M31 30h1M35 31h1M27 36h1M34 38h1M26 43h2M26 44h5M26 45h8M26 46h8M26 47h7" />
<path stroke="#ac92dc" d="M29 22h1M28 23h2M28 24h1M37 24h1M27 25h2M37 25h2M27 26h1M38 26h1M38 27h1M29 28h1M34 28h2M29 29h2M32 29h4M29 30h2M32 30h4M28 31h7M28 32h7M28 33h7M28 34h7M28 35h7M28 36h7M27 37h8M27 38h7M27 39h7M27 40h7M27 41h7M27 42h7M28 43h6M31 44h3" />
<path stroke="#7c829c" d="M22 24h1M22 25h1M45 25h1M22 26h1M22 27h1M21 28h1M43 28h1M21 29h1M43 29h1M21 30h1M21 31h1M48 31h1M21 32h1M18 33h1M21 33h1M21 34h1M20 35h1M42 35h1M20 36h1M42 36h1M50 36h1M17 37h1M20 37h1M45 37h1M20 38h1M45 38h1M18 39h3M20 40h1M49 40h4M15 41h2M47 41h2M17 42h1M47 42h4M10 43h2M48 43h1M51 43h2M53 44h1M53 45h1M34 46h1M51 49h1M20 50h1M48 50h1M20 51h1M24 51h1M20 52h1M20 53h1M39 53h1M20 54h1M39 54h1M20 55h1M39 55h1M20 56h1M39 56h1M20 57h1M39 57h1M20 58h1M23 58h1M39 58h1M20 59h1M39 59h1M20 60h1M39 60h1M20 61h1M39 61h1M45 61h1M19 62h1M40 62h5M34 64h1M44 65h1M41 66h1" />
<path stroke="#8c7a44" d="M25 52h1M27 52h1M29 52h4M25 53h3M29 53h4M25 54h1M27 54h1M29 54h4M27 55h1M29 55h4M29 56h4M29 57h4M24 58h1M30 58h3M30 59h3M30 60h2M20 66h1M23 66h1M20 67h2M35 67h1M41 67h3M20 68h2M39 68h5M21 69h1M39 69h5M38 70h6M39 71h5M37 72h1M39 72h6M21 73h1M36 73h1M39 73h6M21 74h2M36 74h9M21 75h3M36 75h4M41 75h4M21 76h3M37 76h4M42 76h3M20 77h5M37 77h4M42 77h3M20 78h5M37 78h5M43 78h2M21 79h4M37 79h5M43 79h2M36 80h6M43 80h2M36 81h3M44 81h1M18 83h4M40 84h3" />
<path stroke="#ac9a5c" d="M25 55h1M25 56h2M25 57h2M25 58h3M24 59h4M24 60h5M32 60h1M24 61h6M31 61h2M24 62h6M31 62h2M24 63h6M32 63h1M24 64h6M32 64h2M24 65h6M32 65h2M24 66h6M33 66h1M23 67h6M33 67h2M23 68h6M34 68h4M20 69h1M23 69h6M34 69h4M20 70h2M23 70h6M34 70h4M20 71h2M23 71h6M35 71h4M21 72h1M23 72h6M38 72h1M24 73h5M24 74h4M25 75h3M25 76h3M26 77h3M26 78h3M27 79h2M27 80h2" />
<path stroke="#543a34" d="M19 80h2M17 81h1M24 81h2M40 81h3M19 82h5M38 82h1M43 82h1M39 83h6" />
</svg>