<svg xmlns="http://www.w3.org/2000/svg" viewBox="0 -0.5 67 67" shape-rendering="crispEdges">
<metadata>Made with Pixels to Svg https://codepen.io/shshaw/pen/XbxvNj</metadata>
<path stroke="#488070" d="M15 1h2M14 2h1M17 2h1M39 2h1M14 3h1M38 3h1M14 4h1M37 4h1M14 5h1M14 6h1M18 6h1M14 7h1M32 8h1M19 10h1M32 11h3M27 12h1M31 12h3M30 13h4M28 14h5M11 15h2M26 15h6M10 16h1M25 16h6M6 17h3M24 17h4M5 18h1M23 18h3M5 19h1M4 20h1M12 20h1M18 20h1M24 20h3M3 21h1M24 21h7M23 22h11M23 23h3M27 23h9M23 24h4M30 24h8M22 25h6M32 25h7M43 25h1M22 26h1M24 26h2M34 26h6M43 26h1M46 26h1M21 27h3M25 27h1M35 27h6M21 28h1M26 28h1M37 28h5M21 29h1M38 29h2M21 30h1M54 30h1M56 30h1M20 31h1M44 31h1M51 31h3M55 31h1M57 31h1M20 32h1M41 32h4M51 32h4M56 32h1M19 33h1M39 33h6M46 33h2M51 33h5M57 33h1M18 34h1M27 34h1M39 34h5M45 34h4M52 34h6M28 35h1M38 35h1M40 35h4M45 35h4M52 35h6M28 36h1M42 36h2M45 36h4M52 36h6M16 37h1M33 37h1M43 37h2M46 37h1M53 37h5M11 38h1M13 38h2M17 38h1M26 38h2M30 38h3M43 38h2M46 38h1M53 38h5M9 39h1M15 39h1M25 39h4M30 39h4M44 39h2M53 39h4M8 40h1M18 40h1M29 40h1M31 40h3M43 40h1M45 40h1M53 40h2M7 41h1M25 41h6M32 41h2M43 41h1M45 41h1M6 42h1M16 42h1M21 42h8M42 42h3M5 43h1M15 43h2M18 43h8M29 43h3M41 43h2M44 43h2M5 44h1M15 44h2M18 44h4M26 44h3M43 44h3M51 44h1M4 45h1M14 45h1M22 45h3M42 45h1M45 45h2M4 46h1M42 46h3M46 46h2M51 46h1M3 47h1M16 47h4M44 47h2M47 47h2M50 47h2M53 47h1M17 48h3M42 48h2M49 48h2M52 48h2M41 49h4M48 49h3M53 49h2M4 50h1M18 50h1M40 50h4M48 50h2M52 50h1M54 50h2M5 51h1M11 51h1M21 51h1M48 51h2M53 51h1M55 51h1M5 52h2M15 52h1M25 52h1M47 52h2M54 52h1M56 52h1M6 53h2M15 53h1M18 53h1M46 53h2M57 53h2M7 54h2M18 54h1M21 54h1M44 54h3M55 54h4M9 55h3M21 55h1M28 55h1M42 55h4M56 55h3M10 56h5M40 56h4M55 56h1M57 56h3M12 57h6M26 57h1M39 57h3M55 57h1M57 57h3M14 58h7M24 58h3M28 58h1M37 58h2M55 58h2M58 58h2M12 59h2M17 59h10M31 59h4M55 59h2M58 59h1M14 60h3M20 60h7M16 61h4M24 61h5M62 61h1M19 62h4M57 62h1M20 63h1" />
<path stroke="#90d8b0" d="M15 2h2M15 3h2M39 3h1M15 4h2M38 4h1M15 5h2M37 5h1M15 6h3M36 6h1M15 7h3M35 7h1M15 8h3M34 8h1M17 9h1M32 9h1M31 10h1M30 11h1M29 12h1M27 13h1M15 14h2M18 14h2M26 14h1M13 15h3M24 15h1M11 16h11M23 16h1M13 17h7M22 17h1M6 18h2M6 19h4M5 20h4M4 21h4M4 22h2M3 23h2M3 24h1M44 25h2M45 26h1M26 27h4M45 27h2M27 28h4M44 28h3M28 29h3M45 29h1M29 30h3M42 30h2M30 31h3M38 31h6M31 32h2M38 32h3M32 33h2M32 34h2M18 36h3M17 37h5M18 38h2M12 39h3M11 40h5M10 41h4M9 42h4M8 43h4M8 44h3M7 45h3M7 46h3M7 47h2M8 48h1M14 49h1M16 49h1M13 50h1M15 50h1M17 50h1M14 51h1M16 51h5M9 52h2M16 52h9M12 53h2M19 53h11M15 54h2M22 54h7M18 55h2M26 55h2M21 56h2M27 56h1M27 57h1M27 58h1M27 59h2M28 60h1" />
<path stroke="#385038" d="M40 2h1M17 3h1M41 3h1M17 4h1M41 4h1M17 5h1M36 5h1M40 5h1M35 6h1M39 6h1M18 7h1M34 7h1M38 7h1M14 8h1M18 8h1M33 8h1M38 8h1M14 9h1M18 9h1M31 9h1M37 9h1M14 10h1M30 10h1M36 10h1M14 11h1M19 11h1M29 11h1M14 12h1M19 12h1M28 12h1M34 12h1M14 13h6M26 13h1M13 14h2M20 14h3M24 14h2M23 15h1M22 16h1M20 17h2M28 17h1M31 17h2M26 18h1M33 18h2M24 19h1M35 19h2M48 19h1M13 20h5M37 20h2M47 20h1M49 20h1M13 21h2M39 21h2M47 21h1M49 21h1M3 22h1M13 22h1M41 22h1M46 22h1M50 22h1M2 23h1M26 23h1M42 23h1M46 23h1M50 23h1M6 24h4M27 24h3M43 24h3M51 24h5M11 25h1M28 25h4M46 25h1M48 25h4M56 25h1M3 26h1M14 26h1M19 26h1M23 26h1M30 26h1M32 26h2M44 26h1M47 26h1M56 26h1M24 27h1M30 27h1M34 27h1M43 27h2M48 27h1M56 27h1M22 28h2M25 28h1M31 28h1M35 28h2M42 28h1M48 28h1M57 28h1M26 29h1M31 29h1M37 29h1M40 29h1M43 29h2M49 29h1M57 29h1M15 30h1M18 30h1M32 30h1M38 30h1M41 30h1M45 30h1M49 30h1M57 30h1M14 31h1M22 31h1M33 31h1M37 31h1M50 31h1M58 31h1M17 32h1M24 32h3M33 32h1M45 32h3M50 32h1M13 33h1M22 33h2M27 33h3M34 33h4M45 33h1M48 33h1M12 34h1M14 34h3M20 34h3M28 34h1M34 34h1M36 34h1M44 34h1M49 34h1M51 34h1M13 35h1M21 35h1M25 35h1M29 35h1M33 35h1M35 35h1M44 35h1M17 36h1M21 36h1M30 36h1M35 36h1M38 36h4M44 36h1M13 37h3M23 37h1M25 37h1M31 37h2M34 37h1M37 37h1M42 37h1M45 37h1M52 37h1M12 38h1M16 38h1M20 38h3M33 38h1M36 38h1M42 38h1M45 38h1M10 39h1M17 39h1M19 39h1M22 39h1M35 39h1M39 39h2M43 39h1M46 39h1M16 40h1M19 40h3M25 40h1M34 40h1M39 40h3M44 40h1M46 40h1M49 40h1M18 41h1M34 41h1M38 41h2M42 41h1M44 41h1M46 41h1M50 41h1M53 41h1M18 42h1M29 42h3M37 42h2M45 42h2M33 43h1M37 43h1M43 43h1M46 43h1M17 44h1M22 44h1M32 44h1M52 44h2M15 45h4M29 45h1M41 45h1M50 45h2M54 45h1M14 46h1M16 46h1M18 46h3M25 46h1M41 46h1M55 46h1M14 47h2M21 47h3M42 47h2M55 47h1M3 48h1M13 48h4M24 48h3M41 48h1M44 48h3M56 48h1M3 49h1M11 49h2M17 49h2M40 49h1M57 49h1M3 50h1M10 50h1M19 50h3M39 50h1M50 50h2M57 50h1M4 51h1M9 51h2M22 51h4M37 51h2M52 51h1M58 51h1M4 52h1M8 52h1M12 52h3M26 52h3M34 52h3M53 52h1M57 52h3M8 53h1M16 53h2M31 53h3M54 53h3M59 53h2M9 54h3M19 54h2M29 54h2M54 54h1M59 54h1M61 54h1M8 55h1M12 55h3M22 55h2M54 55h2M59 55h1M61 55h1M8 56h2M15 56h3M28 56h1M54 56h1M56 56h1M60 56h1M62 56h1M9 57h3M18 57h3M24 57h2M28 57h1M54 57h1M56 57h1M60 57h1M63 57h1M9 58h1M12 58h2M21 58h3M54 58h1M57 58h1M60 58h1M63 58h1M14 59h3M29 59h1M57 59h1M61 59h2M17 60h3M30 60h1M34 60h1M55 60h1M57 60h1M61 60h1M20 61h4M55 61h1M57 61h1M14 62h1M25 62h1M55 62h1M59 62h1M62 62h1M17 63h1M55 63h2M62 63h1M20 64h1" />
<path stroke="#58b888" d="M40 3h1M39 4h2M38 5h2M37 6h2M36 7h2M35 8h3M15 9h2M33 9h4M15 10h4M32 10h4M15 11h4M31 11h1M15 12h4M30 12h1M28 13h2M27 14h1M25 15h1M24 16h1M9 17h4M23 17h1M8 18h4M17 18h6M28 18h2M31 18h2M12 19h12M26 19h5M32 19h3M10 20h2M19 20h5M27 20h4M32 20h5M9 21h2M16 21h8M31 21h1M34 21h5M8 22h2M15 22h8M36 22h5M48 22h2M6 23h14M22 23h1M38 23h4M48 23h2M4 24h2M22 24h1M39 24h4M47 24h4M40 25h3M47 25h1M26 26h4M41 26h2M51 26h5M42 27h1M47 27h1M49 27h7M47 28h1M49 28h8M27 29h1M46 29h3M50 29h7M28 30h1M46 30h3M50 30h4M55 30h1M29 31h1M46 31h4M54 31h1M56 31h1M30 32h1M48 32h2M55 32h1M57 32h1M24 33h3M31 33h1M49 33h2M56 33h1M25 34h2M29 34h2M35 34h1M37 34h1M50 34h1M19 35h2M30 35h2M34 35h1M36 35h2M50 35h1M29 36h1M31 36h4M36 36h2M50 36h1M28 37h3M35 37h2M40 37h2M47 37h2M50 37h2M28 38h2M34 38h2M41 38h1M47 38h2M50 38h2M11 39h1M18 39h1M34 39h1M41 39h2M47 39h2M50 39h2M9 40h2M22 40h1M24 40h1M42 40h1M47 40h2M50 40h2M8 41h2M14 41h3M19 41h6M47 41h3M51 41h2M7 42h2M13 42h3M19 42h2M47 42h3M51 42h2M6 43h2M12 43h3M49 43h1M51 43h2M6 44h2M11 44h4M46 44h3M5 45h2M10 45h4M47 45h3M53 45h1M5 46h2M10 46h4M48 46h2M53 46h2M4 47h3M9 47h5M54 47h1M4 48h4M9 48h4M20 48h3M54 48h2M4 49h7M13 49h1M15 49h1M19 49h7M45 49h2M55 49h2M5 50h5M11 50h2M14 50h1M16 50h1M22 50h4M44 50h1M56 50h1M6 51h3M12 51h2M15 51h1M39 51h5M45 51h2M56 51h2M7 52h1M11 52h1M37 52h6M44 52h2M14 53h1M34 53h9M17 54h1M31 54h11M60 54h1M20 55h1M24 55h2M30 55h6M39 55h1M60 55h1M23 56h1M25 56h2M30 56h5M36 56h3M61 56h1M30 57h4M35 57h2M61 57h1M11 58h1M61 58h1M59 59h2M27 60h1M29 60h1M59 60h2M60 61h2M60 62h2M61 63h1" />
<path stroke="#181818" d="M35 11h1M34 13h1M33 14h1M32 15h1M31 16h1M29 17h2M27 18h1M25 19h1M11 22h1M2 24h1M3 25h3M7 25h1M12 25h7M6 26h1M15 27h1M19 27h1M15 28h1M19 28h1M43 28h1M15 29h1M19 29h1M22 29h1M41 29h2M22 30h1M27 30h1M39 30h2M44 30h1M18 31h1M21 31h1M28 31h1M45 31h1M21 32h1M29 32h1M37 32h1M58 32h1M17 33h1M20 33h1M30 33h1M38 33h1M58 33h1M19 34h1M31 34h1M38 34h1M58 34h1M17 35h2M32 35h1M39 35h1M49 35h1M51 35h1M58 35h1M14 36h3M23 36h2M49 36h1M51 36h1M58 36h1M22 37h1M26 37h2M49 37h1M58 37h1M15 38h1M49 38h1M52 38h1M58 38h1M16 39h1M24 39h1M29 39h1M36 39h1M49 39h1M52 39h1M57 39h1M17 40h1M23 40h1M26 40h3M30 40h1M37 40h2M52 40h1M55 40h2M17 41h1M31 41h1M54 41h1M17 42h1M32 42h3M36 42h1M50 42h1M53 42h1M17 43h1M26 43h3M35 43h1M38 43h1M40 43h1M50 43h1M53 43h1M23 44h3M30 44h2M39 44h1M41 44h2M50 44h1M19 45h3M26 45h3M43 45h2M52 45h1M21 46h4M45 46h1M50 46h1M52 46h1M46 47h1M49 47h1M52 47h1M47 48h2M51 48h1M27 49h1M51 49h1M27 50h1M27 51h1M50 51h1M29 52h1M49 52h1M5 53h1M30 53h1M48 53h1M6 54h1M47 54h1M7 55h1M29 55h1M46 55h1M29 56h1M44 56h2M29 57h1M42 57h2M29 58h1M39 58h3M9 59h1M30 59h1M35 59h4M10 60h2M31 60h3M58 60h1M12 61h2M29 61h1M59 61h1M15 62h2M26 62h3M18 63h2M23 63h2M60 63h1M21 64h2M61 64h2" />
<path stroke="#f8e800" d="M17 14h1M16 15h5M30 18h1M31 20h1M32 21h1M12 22h1M34 22h1M36 23h1M46 50h1M44 51h1M47 51h1M43 52h1M46 52h1M43 53h2M42 54h1M37 55h2M40 55h1M35 56h1M39 56h1M34 57h1M37 57h2M32 58h5" />
<path stroke="#d8c800" d="M21 15h2M31 19h1M11 21h2M33 21h1M35 22h1M37 23h1M38 24h1M39 25h1M40 26h1M41 27h1M47 49h1M52 49h1M45 50h1M47 50h1M53 50h1M54 51h1M55 52h1M45 53h1M43 54h1M36 55h1M41 55h1M30 58h2" />
<path stroke="#408040" d="M12 18h5M10 19h2M9 20h1M8 21h1M15 21h1M6 22h2M10 22h1M14 22h1M5 23h1M47 43h2M49 44h1" />
<path stroke="#f06060" d="M48 20h1M48 21h1M47 22h1M21 23h1M47 23h1M18 24h4M46 24h1M19 25h2M52 25h4M20 26h1M48 26h3M20 27h1M20 28h1M20 29h1M19 30h1M19 31h1M18 32h1M20 39h2M17 46h1M20 47h1M23 48h1M26 49h1M26 50h1M26 51h1M9 53h3M12 54h3M15 55h3M18 56h3M24 56h1M21 57h3M62 57h1M62 58h1M56 60h1M56 61h1M56 62h1" />
<path stroke="#c09060" d="M20 23h1M10 24h8M21 25h1M21 26h1M20 30h1M19 32h1M18 33h1M13 34h1M17 34h1M14 35h3M32 43h1M29 44h1M25 45h1M10 58h1M10 59h2M12 60h2M14 61h2M17 62h2M23 62h2M21 63h2" />
<path stroke="#f8f8f8" d="M6 25h1M23 34h1M22 35h2M26 35h2M25 36h2M38 37h2M38 38h3M23 39h1M35 40h2M35 41h1M40 41h2M39 42h2" />
<path stroke="#3050a8" d="M15 26h4M16 27h3M16 28h3M16 29h3M17 30h1M16 33h1" />
<path stroke="#4898b8" d="M16 30h1M15 31h3M14 32h3M14 33h2" />
<path stroke="#d8d0e8" d="M24 34h1M24 35h1M22 36h1M27 36h1M24 37h1M23 38h3M37 38h1M37 39h2M36 41h2M35 42h1M41 42h1M39 43h1" />
</svg>