<svg xmlns="http://www.w3.org/2000/svg" viewBox="0 -0.5 80 80" shape-rendering="crispEdges">
<metadata>Made with Pixels to Svg https://codepen.io/shshaw/pen/XbxvNj</metadata>
<path stroke="#685818" d="M40 3h6M38 4h2M45 4h1M45 5h1M48 5h1M38 6h1M44 6h1M47 6h1M39 7h2M43 7h4M50 7h1M36 8h1M40 8h1M47 8h1M49 8h1M37 9h3M48 9h2M38 10h1M48 10h2M36 11h1M38 11h1M48 11h1M37 12h1M37 13h1" />
<path stroke="#b87860" d="M29 4h2M29 5h1M28 6h1M28 7h1M27 8h3M32 8h1M26 9h1M30 9h2M25 10h1M28 10h1M31 10h1M25 11h1M29 11h1M40 11h2M24 12h1M27 12h1M36 12h1M42 12h1M47 12h1M24 13h1M28 13h1M24 14h1M35 14h1M26 15h1M23 16h1M27 16h1M36 16h1M36 17h1M38 17h1M40 17h1M45 17h1M22 18h1M29 18h1M40 18h1M21 19h1M30 19h1M44 19h1M30 20h1M42 20h1M27 21h1M30 21h2M39 21h1M41 21h1M30 22h2M21 23h1M25 24h1M50 26h1M50 30h1M49 31h1M54 33h1M51 34h2M56 36h1M52 37h1M57 37h1M54 38h1M55 39h1M25 52h1M44 52h1M47 52h1M28 54h1M31 54h1M28 55h1M30 55h1M30 56h1M25 57h1M25 59h1" />
<path stroke="#a08840" d="M40 4h5M38 5h7M46 5h2M37 6h1M39 6h5M45 6h2M48 6h3M37 7h2M47 7h3M37 8h3M48 8h1M36 9h1M36 10h2M37 11h1" />
<path stroke="#000000" d="M46 4h3M37 5h1M49 5h2M36 6h1M51 6h1M36 7h1M51 7h1M35 8h1M50 8h1M35 9h1M50 9h1M35 10h1M50 10h1M35 11h1M49 11h1M31 12h1M49 12h1M30 13h1M40 13h1M48 13h1M28 14h1M46 14h1M48 14h1M28 15h1M35 15h1M48 15h1M31 16h4M47 16h1M28 17h2M37 17h1M47 17h1M30 18h1M36 18h1M38 18h1M46 18h1M31 19h1M36 19h1M45 19h1M47 19h1M31 20h1M37 20h1M48 20h1M20 21h1M32 21h1M38 21h1M48 21h1M20 22h1M32 22h1M39 22h2M49 22h1M29 23h3M49 23h1M21 24h1M26 24h3M31 24h1M50 24h1M22 25h2M25 25h1M30 25h1M33 25h1M46 25h1M50 25h1M26 26h7M46 26h1M49 26h1M29 27h1M45 27h1M49 27h1M29 28h1M44 28h5M29 29h1M44 29h1M29 30h1M43 30h1M29 31h1M42 31h1M28 32h1M42 32h1M28 33h1M41 33h1M28 34h1M41 34h1M29 35h1M41 35h1M27 36h1M30 36h3M38 36h3M27 37h1M33 37h5M26 38h1M26 39h1M25 40h1M25 41h1M25 42h1M24 43h1M24 44h1M24 45h1M49 45h1M24 46h1M24 47h1M35 48h1M50 48h1M34 49h1M36 49h1M50 49h1M33 50h1M37 50h1M40 50h1M33 51h1M38 51h5M33 52h1M41 53h1M49 53h1M32 54h1M41 54h1M49 54h1M41 55h1M49 55h1M31 56h1M42 56h1M48 56h1M42 57h1M47 57h1M30 58h1M42 58h1M47 58h1M24 59h1M30 59h1M46 59h1M30 60h1M41 60h1M44 60h3M30 61h1M41 61h1M43 61h1M47 61h1M30 62h1M41 62h1M44 62h1M47 62h1M24 63h1M41 63h1M45 63h5M42 64h1M50 64h1M29 65h1M43 65h3M50 65h1M29 66h1M46 66h4M29 67h1M29 68h1M53 68h1M29 69h1M53 69h1M29 70h1M53 70h1M27 71h3M53 71h1M24 72h1M26 72h1M30 72h1M53 72h1M24 73h4M30 73h1M53 73h1M24 74h1M28 74h4M24 75h1M32 75h1M52 75h1M25 76h2M32 76h1M40 76h1M51 76h1M27 77h5M41 77h1M50 77h1M43 78h6" />
<path stroke="#f8d0b8" d="M30 5h1M29 6h1M29 7h1M41 8h5M27 9h3M40 9h7M26 10h2M29 10h1M39 10h9M26 11h3M39 11h1M42 11h6M25 12h2M28 12h1M35 12h1M38 12h2M43 12h4M25 13h3M35 13h2M38 13h2M43 13h2M25 14h1M27 14h1M36 14h1M38 14h7M47 14h1M24 15h2M37 15h9M24 16h3M38 16h8M23 17h4M39 17h1M42 17h2M23 18h4M28 18h1M39 18h1M22 19h5M28 19h2M21 20h6M28 20h2M21 21h6M28 21h2M21 22h5M22 23h2M25 23h1M22 24h2M43 43h4M41 44h2M44 44h4M40 45h4M45 45h4M40 46h4M45 46h4M39 47h11M39 48h8M49 48h1M40 49h6M42 50h4" />
<path stroke="#784858" d="M31 5h1M31 6h1M30 7h1M30 8h1M33 8h1M33 9h1M33 10h1M31 11h2M30 12h1M34 12h1M34 13h1M29 14h1M23 15h1M27 15h1M36 15h1M37 16h1M22 17h1M27 17h1M27 18h1M43 18h1M27 19h1M39 19h1M20 20h1M27 20h1M40 20h2M43 20h1M26 22h1M26 23h1M24 25h1M51 27h1M51 28h1M46 29h1M52 29h1M47 30h1M52 30h1M48 31h1M53 31h1M49 32h1M54 32h1M50 33h1M55 33h1M56 34h1M51 35h1M57 35h1M51 36h1M57 36h1M52 38h1M55 38h1M57 38h1M53 39h1M56 39h2M54 40h2M48 44h1M49 46h1M50 47h1M24 48h1M24 49h1M39 49h1M24 50h1M41 50h1M49 50h1M24 51h1M43 51h1M42 52h1M48 52h1M25 53h1M32 53h1M44 53h4M25 54h1M25 55h1M31 55h1M25 56h1M30 57h1M24 58h1M41 64h1M42 65h1M51 65h1M39 66h1M42 66h1M45 66h1M52 66h1M41 67h1M48 67h1M52 67h1M52 69h1M40 70h1M42 70h1M41 71h1M50 73h1M52 73h1M45 74h2M52 74h1M47 75h3" />
<path stroke="#d8a078" d="M30 6h1M41 7h2M46 8h1M32 9h1M47 9h1M30 10h1M32 10h1M30 11h1M29 12h1M48 12h1M29 13h1M42 13h1M45 13h1M26 14h1M37 14h1M45 14h1M46 15h2M46 16h1M41 17h1M44 17h1M46 17h1M37 18h1M44 18h2M37 19h2M40 19h4M38 20h2M40 21h1M27 22h3M24 23h1M27 23h2M24 24h1M50 27h1M49 28h2M47 29h5M48 30h2M51 30h1M50 31h3M50 32h4M51 33h3M53 34h3M52 35h5M52 36h4M53 37h4M53 38h1M56 38h1M54 39h1M43 44h1M44 45h1M44 46h1M47 48h2M25 49h1M46 49h4M25 50h2M46 50h3M25 51h4M32 51h1M44 51h5M26 52h7M45 52h2M26 53h6M26 54h2M29 54h2M26 55h2M29 55h1M26 56h4M26 57h4M25 58h5M26 59h4M26 60h3" />
<path stroke="#387878" d="M40 12h1M46 13h1M44 63h1M43 64h1M26 74h1M25 75h1" />
<path stroke="#f8f8f8" d="M41 12h1M41 13h1M47 13h1M41 18h2M43 25h1M42 26h3M42 27h1M44 27h1M43 28h1M29 36h1M30 37h2M29 38h1M28 39h5M38 39h6M28 40h8M37 40h8M27 41h9M37 41h9M27 42h8M36 42h6M27 43h8M36 43h4M26 44h9M36 44h4M26 45h9M36 45h3M26 46h9M37 46h2M26 47h9M37 47h1M26 48h8M27 49h7M29 50h3M39 70h1M39 71h2M39 72h2M40 73h1" />
<path stroke="#303038" d="M35 16h1M34 17h2M35 18h1M35 19h1M35 20h2M44 20h1M36 21h2M42 21h2M36 22h3M41 22h3M37 23h6M37 24h5M37 25h5M36 26h5M36 27h5M36 28h5M36 29h4M35 30h5M35 31h5M35 32h4M34 33h5M34 34h4M28 35h1M33 35h5M28 36h1M33 36h5M41 36h1M28 37h1M41 37h2M27 38h1M42 38h2M27 39h1M44 39h1M26 40h1M45 40h1M26 41h1M46 41h1M26 42h1M47 42h1M25 43h1M48 43h1M25 44h1M25 45h1M25 46h1M25 47h1M49 51h1M42 55h1M43 56h1M47 56h1M44 57h3M42 59h1M23 60h1M25 60h1M29 60h1M23 61h1M26 61h3M44 61h3M23 62h1M42 62h2M45 62h2M29 63h1M42 63h2M24 64h6M44 64h3M49 64h1M24 65h1M41 65h1M46 65h4M24 66h1M40 66h2M24 67h1M39 67h2M46 67h2M25 68h1M39 68h2M25 69h1M51 69h1M25 70h1M38 70h1M43 70h3M50 70h3M38 71h1M42 71h4M50 71h3M27 72h3M38 72h1M41 72h5M50 72h3M28 73h2M42 73h4M51 73h1M25 74h1M27 74h1M26 75h2M31 75h1M39 75h1M27 76h5M42 77h1M45 77h2M49 77h1" />
<path stroke="#584068" d="M30 17h2M32 18h1M33 19h1M34 20h1M34 21h1M44 21h1M34 22h1M47 22h2M32 23h1M47 23h2M29 24h2M32 24h2M43 24h2M47 24h3M26 25h4M31 25h2M36 25h1M47 25h3M47 26h2M30 27h3M46 27h3M30 28h2M42 28h1M35 29h1M40 29h1M30 32h1M39 32h1M30 33h1M31 34h1M38 34h1M31 35h1M43 52h1M49 52h1M42 53h2M48 53h1M42 54h7M43 55h6M44 56h3M43 57h1M43 58h4M43 59h3M24 60h1M42 60h2M24 61h2M29 61h1M42 61h1M24 62h6M25 63h4M25 65h4M27 66h2M25 67h1M28 67h1M26 70h1M25 71h2M25 72h1" />
<path stroke="#8068b0" d="M32 17h2M31 18h1M33 18h2M32 19h1M34 19h1M46 19h1M32 20h2M45 20h3M33 21h1M35 21h1M45 21h3M33 22h1M35 22h1M44 22h3M33 23h4M43 23h4M34 24h3M42 24h1M45 24h2M34 25h2M42 25h1M45 25h1M33 26h3M41 26h1M45 26h1M33 27h3M41 27h1M32 28h4M41 28h1M30 29h5M41 29h3M30 30h5M40 30h3M30 31h5M40 31h2M29 32h1M31 32h4M40 32h2M29 33h1M31 33h3M39 33h2M29 34h2M32 34h2M39 34h2M30 35h1M32 35h1M38 35h3M25 66h2M26 67h2M26 68h3M26 69h3M27 70h2" />
<path stroke="#b8b8b8" d="M44 25h1M43 27h1M32 37h1M38 37h2M33 38h5M40 38h2M36 41h1M42 42h1M35 43h1M40 43h1M35 44h1M35 45h1M36 46h1M36 47h1M36 48h2M37 49h1M38 50h1M39 69h1M39 73h1M40 74h2M44 74h1M40 75h7M41 76h10M43 77h1M48 77h1" />
<path stroke="#707070" d="M29 37h1M40 37h1M28 38h1M30 38h3M38 38h2M33 39h5M27 40h1M36 40h1M35 42h1M43 42h4M26 43h1M41 43h2M47 43h1M40 44h1M39 45h1M35 46h1M39 46h1M35 47h1M38 47h1M25 48h1M34 48h1M38 48h1M26 49h1M38 49h1M27 50h2M32 50h1M39 50h1M29 51h3M47 64h2M40 65h1M38 68h1M38 69h1M38 73h1M41 73h1M39 74h1M42 74h2M28 75h3M44 77h1M47 77h1" />
<path stroke="#b84848" d="M43 66h2M50 66h2M42 67h4M49 67h3M41 68h12M40 69h11M41 70h1M46 70h4M46 71h4M46 72h4M46 73h4M47 74h5M50 75h2" />
</svg>