<svg xmlns="http://www.w3.org/2000/svg" viewBox="0 -0.5 64 64" shape-rendering="crispEdges">
<metadata>Made with Pixels to Svg https://codepen.io/shshaw/pen/XbxvNj</metadata>
<path stroke="#808858" d="M29 16h1M28 17h1M30 17h1M28 18h1M27 19h1M38 19h1M30 20h2M39 20h1M22 22h1M40 22h1M21 23h1M34 23h1M20 24h1M20 25h1M21 26h1M21 27h1M22 28h2M24 29h1M25 30h2M19 31h4M41 31h1M18 32h1M30 32h3M41 32h1M19 33h1M28 33h2M41 33h1M40 34h2M40 35h2M38 36h4M18 37h2M36 37h1M38 37h4M17 38h1M39 38h2M17 39h1M33 39h2M40 39h1M17 40h1M35 40h1M17 41h1M18 42h1M30 42h1M38 42h1M42 42h1M37 43h1M41 43h1M25 44h1M29 44h1M36 44h1M41 44h1M29 45h1M30 46h1M31 47h1" />
<path stroke="#c8d8b8" d="M29 17h1M29 18h2M37 18h1M28 19h1M36 19h1M36 20h1M21 24h1M21 25h1M31 37h2M20 38h1M31 38h3M21 39h1M30 39h2M23 40h1M30 40h1M24 41h1M29 41h1M27 42h2M35 44h1" />
<path stroke="#505048" d="M37 17h1M36 18h1M38 18h1M31 19h1M35 19h1M32 20h3M39 21h1M32 22h3M35 23h1M40 23h1M35 24h1M40 24h1M35 25h1M41 26h1M41 27h1M27 28h1M30 28h1M41 28h1M28 29h1M30 29h1M29 30h1M24 31h1M29 31h3M42 31h1M25 32h1M42 32h1M42 33h1M22 34h1M25 34h1M35 34h1M42 34h1M23 35h2M35 35h1M42 35h1M33 36h2M42 36h1M37 37h1M42 37h1M21 38h1M38 38h1M42 38h1M22 39h1M39 39h1M39 40h1M41 40h1M23 41h1M36 41h1M39 41h1M41 41h2M36 42h1M39 42h2M43 42h1M24 43h1M36 43h1M39 43h2M45 43h1M23 44h2M39 44h1M46 44h1M20 45h3M27 45h2M35 45h1M38 45h8M34 46h1M37 46h1M32 47h2" />
<path stroke="#b8c8a0" d="M29 19h2M37 19h1M35 20h1M37 20h1M28 21h1M34 21h1M36 21h2M23 22h1M26 22h1M24 23h1M31 23h2M22 24h2M31 24h1M22 25h1M22 27h3M22 40h1M22 41h1M30 41h1M23 42h2M29 42h1M23 43h1M25 43h5" />
<path stroke="#90a868" d="M26 20h4M24 21h2M38 21h1M39 22h1M33 23h1M39 23h1M39 24h1M35 26h1M40 26h1M33 27h2M40 27h1M40 28h1M40 29h1M40 30h1M25 31h4M39 31h2M26 32h4M37 32h4M35 33h6M36 34h4M36 35h4M36 36h2M32 39h1M37 39h2M31 40h1M37 40h2M37 41h2M37 42h1M42 43h3M26 44h3M42 44h4" />
<path stroke="#a0b880" d="M38 20h1M29 21h5M35 21h1M27 22h4M35 22h4M25 23h5M36 23h3M24 24h6M36 24h3M23 25h7M32 25h3M36 25h4M25 26h10M36 26h4M31 27h2M35 27h5M24 28h3M31 28h9M25 29h3M31 29h9M27 30h2M30 30h10M32 31h7M34 32h3M20 33h1M23 36h1M35 36h1M22 37h1M34 37h2M22 38h1M34 38h4M36 39h1" />
<path stroke="#e0e8d8" d="M26 21h2M24 22h2M31 22h1M22 23h2M30 23h1M30 24h1M21 33h1M24 33h4M23 34h2M26 34h2M32 34h3M31 35h4M30 36h1M30 37h1M30 38h1M19 39h2M29 39h1M19 40h3M28 40h2M33 40h2M18 41h4M25 41h4M32 41h4M19 42h4M25 42h2M32 42h4M19 43h4M31 43h5M20 44h3M31 44h4M31 45h4M31 46h3" />
<path stroke="#000000" d="M32 24h3M30 25h2" />
<path stroke="#686850" d="M40 25h1M22 26h3M25 27h6M41 29h1M41 30h1M23 31h1M33 32h1M34 33h1M21 34h1M28 34h1M29 35h2M31 36h2M20 37h1M33 37h1M41 38h1M35 39h1M41 39h1M36 40h1M40 40h1M40 41h1M41 42h1M18 43h1M38 43h1M19 44h1M37 44h2M40 44h1M36 45h2M35 46h2" />
<path stroke="#f8f8f8" d="M28 28h2M29 29h1M19 32h6M22 33h2M30 33h4M29 34h3M25 35h4M24 36h6M23 37h7M18 38h2M23 38h7M18 39h1M23 39h6M18 40h1M24 40h4M32 40h1M31 41h1M31 42h1M30 43h1M30 44h1M30 45h1" />
</svg>