<svg xmlns="http://www.w3.org/2000/svg" viewBox="0 -0.5 64 64" shape-rendering="crispEdges">
<metadata>Made with Pixels to Svg https://codepen.io/shshaw/pen/XbxvNj</metadata>
<path stroke="#785858" d="M11 25h2M10 26h1M14 26h1M11 27h1M12 28h2M10 29h1M12 29h1M14 29h1M17 29h1M11 30h1M15 30h1M12 31h1M16 31h1M12 32h1M17 32h1M13 33h1M18 33h1M20 33h1M13 34h1M20 35h1M13 36h1M18 36h1M13 37h1M21 37h1M12 38h1M19 38h1M12 39h1M18 39h1M13 40h1M14 41h2M22 49h1M21 50h1M23 50h1M25 50h1M21 51h1M29 52h1M31 52h1" />
<path stroke="#803850" d="M16 25h4M15 26h1M20 26h1M16 27h1M17 28h1M13 29h1M13 30h2M14 31h2M14 32h3M15 33h3M15 34h5M15 35h1M19 35h1M14 37h1M17 37h1M14 38h1M16 38h1M14 39h2M16 41h1M17 42h1M18 43h1" />
<path stroke="#f8e850" d="M11 26h1M12 27h2M14 28h2M15 29h2M16 30h1M21 35h1M14 36h1M19 36h1M18 37h1M13 38h1M17 38h1M13 39h1M16 39h1M14 40h2M22 50h1M24 51h1M30 53h1M32 53h1" />
<path stroke="#f8f8f8" d="M12 26h1M14 27h1M18 30h1M21 30h1M21 31h2M21 32h2M21 33h1M19 43h1M23 43h3M20 44h1M22 44h5M21 45h7M21 46h7M23 47h3" />
<path stroke="#e0b848" d="M13 26h1M10 27h1M15 27h1M10 28h2M16 28h1M11 29h1M12 30h1M17 30h1M13 31h1M17 31h1M13 32h1M18 32h1M14 33h1M19 33h1M14 34h1M20 34h2M14 35h1M22 35h1M20 36h2M19 37h2M18 38h1M17 39h1M16 40h1" />
<path stroke="#e06860" d="M16 26h1M19 26h1M17 27h2M22 30h1M16 35h2M15 36h3M15 37h2M17 41h2M18 42h3M20 43h3M21 44h1" />
<path stroke="#f89088" d="M17 26h2" />
<path stroke="#283058" d="M21 26h1M22 27h2M24 28h1M19 29h1M25 29h1M20 30h1M25 30h1M41 30h1M43 30h1M20 31h1M26 31h1M40 31h1M43 31h1M27 32h2M39 32h1M42 32h1M28 33h2M38 33h1M41 33h1M51 33h2M26 34h1M30 34h2M37 34h1M40 34h1M49 34h1M52 34h1M25 35h1M32 35h2M36 35h1M48 35h1M51 35h1M25 36h1M35 36h4M47 36h1M50 36h1M24 37h1M36 37h2M45 37h1M49 37h1M24 38h1M37 38h1M43 38h2M24 39h1M40 39h7M24 40h1M39 40h7M25 41h1M39 41h6M25 42h1M40 42h4M26 43h1M40 43h3M27 44h1M41 44h1M29 45h1M31 46h1M41 46h6M33 47h2M49 47h2M36 48h3M48 48h1M24 50h1M23 51h1M30 51h2M33 51h1M23 52h1M28 52h1M29 53h1M31 53h1M30 54h1" />
<path stroke="#c03030" d="M19 27h3M18 28h4M22 29h1M18 35h1M22 37h1M15 38h1M20 38h4M19 39h5M17 40h7M19 41h6M21 42h3" />
<path stroke="#5868a8" d="M22 28h2M23 29h2M23 30h1M42 30h1M41 31h1M40 32h1M22 33h1M39 33h2M28 34h1M38 34h1M50 34h1M26 35h1M31 35h1M37 35h1M49 35h1M28 36h2M48 36h1M25 37h1M27 37h1M46 37h2M25 38h2M25 39h1M25 40h1M42 47h5" />
<path stroke="#000000" d="M18 29h1M19 30h1M18 31h2M19 32h1M39 35h1M34 36h1M39 36h1M35 37h1M38 37h1M36 38h1M38 38h1M48 38h1M37 39h1M47 39h1M38 40h1M46 40h1M38 41h1M45 41h1M39 42h1M44 42h1M39 43h1M43 43h1M40 44h1M42 44h1M40 45h2M45 48h3M23 49h3M34 49h11M26 50h2M32 50h4M22 51h1M25 51h2M29 51h1M32 51h1M34 51h3M24 52h1M30 52h1M32 52h3M33 53h1M32 54h1" />
<path stroke="#c8d0d0" d="M20 29h2M20 32h1M24 42h1M28 46h2M22 47h1M26 47h6M24 48h10M27 49h6" />
<path stroke="#485890" d="M24 30h1M23 31h3M42 31h1M23 32h4M41 32h1M23 33h5M50 33h1M22 34h4M27 34h1M39 34h1M51 34h1M23 35h2M38 35h1M50 35h1M22 36h3M30 36h4M46 36h1M49 36h1M23 37h1M28 37h7M48 37h1M27 38h9M45 38h3M26 39h11M26 40h12M26 41h12M26 42h13M27 43h12M28 44h12M30 45h10M32 46h9M47 46h2M35 47h7M39 48h6" />
<path stroke="#7888c8" d="M29 34h1M27 35h4M26 36h2M26 37h1M47 47h2" />
<path stroke="#909090" d="M19 44h1M20 45h1M28 45h1M20 46h1M30 46h1M21 47h1M32 47h1M22 48h2M34 48h2M26 49h1M33 49h1M28 50h4" />
</svg>