<svg xmlns="http://www.w3.org/2000/svg" viewBox="0 -0.5 48 32" shape-rendering="crispEdges">
<metadata>Made with Pixels to Svg https://codepen.io/shshaw/pen/XbxvNj</metadata>
<path stroke="#f8f8f8" d="M0 0h48M0 1h48M0 2h15M19 2h29M0 3h13M21 3h27M0 4h12M22 4h26M0 5h11M23 5h25M0 6h10M24 6h24M0 7h10M24 7h24M0 8h9M25 8h3M34 8h14M0 9h9M25 9h1M36 9h12M0 10h9M37 10h11M0 11h9M38 11h10M0 12h9M38 12h10M0 13h9M39 13h9M0 14h10M39 14h9M0 15h10M39 15h9M0 16h10M40 16h8M0 17h11M40 17h8M0 18h11M40 18h8M0 19h11M21 19h2M40 19h8M0 20h12M17 20h2M21 20h2M39 20h9M0 21h12M39 21h9M0 22h13M38 22h10M0 23h13M37 23h11M0 24h14M35 24h13M0 25h14M17 25h2M33 25h15M0 26h14M16 26h1M18 26h1M30 26h18M0 27h14M15 27h2M18 27h1M26 27h22M0 28h15M18 28h1M23 28h25M0 29h16M20 29h28M0 30h48M0 31h48" />
<path stroke="#a06850" d="M15 2h2M13 3h1M12 4h1M11 5h1M10 6h1M9 8h1M9 9h1M9 10h1M9 11h1M9 12h1M9 13h1M10 15h1M10 16h1M11 17h1M12 20h1M13 22h1M14 25h1M14 26h1M14 27h1M15 28h1M17 29h3" />
<path stroke="#703830" d="M17 2h2M19 3h2M21 4h1M22 5h1M23 7h1M28 8h4M24 9h1M27 9h1M34 9h1M37 12h1M38 15h1M11 18h1M11 19h1M38 20h1M12 21h1M13 23h1M35 23h1M33 24h1M30 25h1M26 26h1M23 27h1M20 28h1M16 29h1" />
<path stroke="#e09880" d="M14 3h1M10 7h1M29 9h1M30 10h1M31 11h1M31 12h1M32 13h1M10 14h1M32 14h1M32 15h1M32 16h1M32 17h1M31 19h1M30 20h1M29 21h1M27 23h1M23 24h3" />
<path stroke="#f0d090" d="M15 3h4M13 4h3M19 4h2M12 5h2M21 5h1M11 6h2M11 7h1M10 8h2M10 9h1M28 9h1M10 10h1M26 10h2M10 11h1M10 12h1M10 13h1M11 14h1M11 15h1M11 16h1M12 17h1M12 18h1M12 19h1M15 24h1M17 24h2M15 25h1M19 25h1M15 26h1M20 26h1M20 27h1M19 28h1" />
<path stroke="#f8a078" d="M16 4h3M14 5h7M13 6h9M12 7h11M12 8h11M11 9h13M11 10h13M28 10h2M11 11h13M25 11h6M11 12h20M11 13h21M12 14h20M12 15h20M12 16h20M13 17h19M13 18h8M23 18h9M13 19h2M24 19h7M13 20h2M24 20h6M13 21h2M20 21h1M23 21h6M14 22h15M14 23h13M16 24h1M19 24h4M17 26h1" />
<path stroke="#c89090" d="M22 6h1M23 8h1M30 9h4M24 10h1M31 10h5M24 11h1M32 11h5M32 12h5M33 13h5M33 14h5M33 15h5M33 16h6M33 17h6M32 18h7M15 19h1M19 19h1M32 19h7M31 20h7M15 21h1M19 21h1M30 21h8M29 22h8M28 23h7M26 24h7M20 25h10M21 26h5M17 27h1M21 27h2M16 28h1" />
<path stroke="#000000" d="M23 6h1M24 8h1M32 8h2M26 9h1M35 9h1M25 10h1M36 10h1M37 11h1M38 13h1M38 14h1M39 16h1M39 17h1M39 18h1M39 19h1M38 21h1M37 22h1M36 23h1M14 24h1M34 24h1M31 25h2M27 26h3M24 27h2M21 28h2" />
<path stroke="#f8e0d0" d="M21 18h2M20 19h1M23 19h1M20 20h1M23 20h1M21 21h2M16 25h1M19 26h1M19 27h1M17 28h1" />
<path stroke="#5860b8" d="M16 19h3M15 20h2M19 20h1M16 21h3" />
</svg>